<?xml version="1.0" encoding="utf-8" standalone="no"?>
<!DOCTYPE svg PUBLIC "-//W3C//DTD SVG 1.1//EN"
  "http://www.w3.org/Graphics/SVG/1.1/DTD/svg11.dtd">
<!-- Created with matplotlib (http://matplotlib.org/) -->
<svg height="720pt" version="1.1" viewBox="0 0 540 720" width="540pt" xmlns="http://www.w3.org/2000/svg" xmlns:xlink="http://www.w3.org/1999/xlink">
 <defs>
  <style type="text/css">
*{stroke-linecap:butt;stroke-linejoin:round;}
  </style>
 </defs>
 <g id="figure_1">
  <g id="patch_1">
   <path d="M 0 720 
L 540 720 
L 540 0 
L 0 0 
z
" style="fill:#ffffff;"/>
  </g>
  <g id="axes_1">
   <g id="patch_2">
    <path d="M 67.5 246.282353 
L 257.727273 246.282353 
L 257.727273 86.4 
L 67.5 86.4 
z
" style="fill:#ffffff;"/>
   </g>
   <g id="matplotlib.axis_1">
    <g id="xtick_1">
     <g id="line2d_1">
      <defs>
       <path d="M 0 0 
L 0 3.5 
" id="ma768baa577" style="stroke:#000000;stroke-width:0.8;"/>
      </defs>
      <g>
       <use style="stroke:#000000;stroke-width:0.8;" x="89.116736" xlink:href="#ma768baa577" y="246.282353"/>
      </g>
     </g>
     <g id="text_1">
      <!-- −0.4 -->
      <defs>
       <path d="M 10.59375 35.5 
L 73.1875 35.5 
L 73.1875 27.203125 
L 10.59375 27.203125 
z
" id="DejaVuSans-2212"/>
       <path d="M 31.78125 66.40625 
Q 24.171875 66.40625 20.328125 58.90625 
Q 16.5 51.421875 16.5 36.375 
Q 16.5 21.390625 20.328125 13.890625 
Q 24.171875 6.390625 31.78125 6.390625 
Q 39.453125 6.390625 43.28125 13.890625 
Q 47.125 21.390625 47.125 36.375 
Q 47.125 51.421875 43.28125 58.90625 
Q 39.453125 66.40625 31.78125 66.40625 
z
M 31.78125 74.21875 
Q 44.046875 74.21875 50.515625 64.515625 
Q 56.984375 54.828125 56.984375 36.375 
Q 56.984375 17.96875 50.515625 8.265625 
Q 44.046875 -1.421875 31.78125 -1.421875 
Q 19.53125 -1.421875 13.0625 8.265625 
Q 6.59375 17.96875 6.59375 36.375 
Q 6.59375 54.828125 13.0625 64.515625 
Q 19.53125 74.21875 31.78125 74.21875 
z
" id="DejaVuSans-30"/>
       <path d="M 10.6875 12.40625 
L 21 12.40625 
L 21 0 
L 10.6875 0 
z
" id="DejaVuSans-2e"/>
       <path d="M 37.796875 64.3125 
L 12.890625 25.390625 
L 37.796875 25.390625 
z
M 35.203125 72.90625 
L 47.609375 72.90625 
L 47.609375 25.390625 
L 58.015625 25.390625 
L 58.015625 17.1875 
L 47.609375 17.1875 
L 47.609375 0 
L 37.796875 0 
L 37.796875 17.1875 
L 4.890625 17.1875 
L 4.890625 26.703125 
z
" id="DejaVuSans-34"/>
      </defs>
      <g transform="translate(76.975329 260.88079)scale(0.1 -0.1)">
       <use xlink:href="#DejaVuSans-2212"/>
       <use x="83.789062" xlink:href="#DejaVuSans-30"/>
       <use x="147.412109" xlink:href="#DejaVuSans-2e"/>
       <use x="179.199219" xlink:href="#DejaVuSans-34"/>
      </g>
     </g>
    </g>
    <g id="xtick_2">
     <g id="line2d_2">
      <g>
       <use style="stroke:#000000;stroke-width:0.8;" x="125.865186" xlink:href="#ma768baa577" y="246.282353"/>
      </g>
     </g>
     <g id="text_2">
      <!-- −0.2 -->
      <defs>
       <path d="M 19.1875 8.296875 
L 53.609375 8.296875 
L 53.609375 0 
L 7.328125 0 
L 7.328125 8.296875 
Q 12.9375 14.109375 22.625 23.890625 
Q 32.328125 33.6875 34.8125 36.53125 
Q 39.546875 41.84375 41.421875 45.53125 
Q 43.3125 49.21875 43.3125 52.78125 
Q 43.3125 58.59375 39.234375 62.25 
Q 35.15625 65.921875 28.609375 65.921875 
Q 23.96875 65.921875 18.8125 64.3125 
Q 13.671875 62.703125 7.8125 59.421875 
L 7.8125 69.390625 
Q 13.765625 71.78125 18.9375 73 
Q 24.125 74.21875 28.421875 74.21875 
Q 39.75 74.21875 46.484375 68.546875 
Q 53.21875 62.890625 53.21875 53.421875 
Q 53.21875 48.921875 51.53125 44.890625 
Q 49.859375 40.875 45.40625 35.40625 
Q 44.1875 33.984375 37.640625 27.21875 
Q 31.109375 20.453125 19.1875 8.296875 
z
" id="DejaVuSans-32"/>
      </defs>
      <g transform="translate(113.72378 260.88079)scale(0.1 -0.1)">
       <use xlink:href="#DejaVuSans-2212"/>
       <use x="83.789062" xlink:href="#DejaVuSans-30"/>
       <use x="147.412109" xlink:href="#DejaVuSans-2e"/>
       <use x="179.199219" xlink:href="#DejaVuSans-32"/>
      </g>
     </g>
    </g>
    <g id="xtick_3">
     <g id="line2d_3">
      <g>
       <use style="stroke:#000000;stroke-width:0.8;" x="162.613636" xlink:href="#ma768baa577" y="246.282353"/>
      </g>
     </g>
     <g id="text_3">
      <!-- 0.0 -->
      <g transform="translate(154.662074 260.88079)scale(0.1 -0.1)">
       <use xlink:href="#DejaVuSans-30"/>
       <use x="63.623047" xlink:href="#DejaVuSans-2e"/>
       <use x="95.410156" xlink:href="#DejaVuSans-30"/>
      </g>
     </g>
    </g>
    <g id="xtick_4">
     <g id="line2d_4">
      <g>
       <use style="stroke:#000000;stroke-width:0.8;" x="199.362087" xlink:href="#ma768baa577" y="246.282353"/>
      </g>
     </g>
     <g id="text_4">
      <!-- 0.2 -->
      <g transform="translate(191.410524 260.88079)scale(0.1 -0.1)">
       <use xlink:href="#DejaVuSans-30"/>
       <use x="63.623047" xlink:href="#DejaVuSans-2e"/>
       <use x="95.410156" xlink:href="#DejaVuSans-32"/>
      </g>
     </g>
    </g>
    <g id="xtick_5">
     <g id="line2d_5">
      <g>
       <use style="stroke:#000000;stroke-width:0.8;" x="236.110537" xlink:href="#ma768baa577" y="246.282353"/>
      </g>
     </g>
     <g id="text_5">
      <!-- 0.4 -->
      <g transform="translate(228.158975 260.88079)scale(0.1 -0.1)">
       <use xlink:href="#DejaVuSans-30"/>
       <use x="63.623047" xlink:href="#DejaVuSans-2e"/>
       <use x="95.410156" xlink:href="#DejaVuSans-34"/>
      </g>
     </g>
    </g>
   </g>
   <g id="matplotlib.axis_2">
    <g id="ytick_1">
     <g id="line2d_6">
      <defs>
       <path d="M 0 0 
L -3.5 0 
" id="m5b4fe9f642" style="stroke:#000000;stroke-width:0.8;"/>
      </defs>
      <g>
       <use style="stroke:#000000;stroke-width:0.8;" x="67.5" xlink:href="#m5b4fe9f642" y="227.459355"/>
      </g>
     </g>
     <g id="text_6">
      <!-- −10 -->
      <defs>
       <path d="M 12.40625 8.296875 
L 28.515625 8.296875 
L 28.515625 63.921875 
L 10.984375 60.40625 
L 10.984375 69.390625 
L 28.421875 72.90625 
L 38.28125 72.90625 
L 38.28125 8.296875 
L 54.390625 8.296875 
L 54.390625 0 
L 12.40625 0 
z
" id="DejaVuSans-31"/>
      </defs>
      <g transform="translate(39.395313 231.258574)scale(0.1 -0.1)">
       <use xlink:href="#DejaVuSans-2212"/>
       <use x="83.789062" xlink:href="#DejaVuSans-31"/>
       <use x="147.412109" xlink:href="#DejaVuSans-30"/>
      </g>
     </g>
    </g>
    <g id="ytick_2">
     <g id="line2d_7">
      <g>
       <use style="stroke:#000000;stroke-width:0.8;" x="67.5" xlink:href="#m5b4fe9f642" y="189.664967"/>
      </g>
     </g>
     <g id="text_7">
      <!-- −5 -->
      <defs>
       <path d="M 10.796875 72.90625 
L 49.515625 72.90625 
L 49.515625 64.59375 
L 19.828125 64.59375 
L 19.828125 46.734375 
Q 21.96875 47.46875 24.109375 47.828125 
Q 26.265625 48.1875 28.421875 48.1875 
Q 40.625 48.1875 47.75 41.5 
Q 54.890625 34.8125 54.890625 23.390625 
Q 54.890625 11.625 47.5625 5.09375 
Q 40.234375 -1.421875 26.90625 -1.421875 
Q 22.3125 -1.421875 17.546875 -0.640625 
Q 12.796875 0.140625 7.71875 1.703125 
L 7.71875 11.625 
Q 12.109375 9.234375 16.796875 8.0625 
Q 21.484375 6.890625 26.703125 6.890625 
Q 35.15625 6.890625 40.078125 11.328125 
Q 45.015625 15.765625 45.015625 23.390625 
Q 45.015625 31 40.078125 35.4375 
Q 35.15625 39.890625 26.703125 39.890625 
Q 22.75 39.890625 18.8125 39.015625 
Q 14.890625 38.140625 10.796875 36.28125 
z
" id="DejaVuSans-35"/>
      </defs>
      <g transform="translate(45.757812 193.464186)scale(0.1 -0.1)">
       <use xlink:href="#DejaVuSans-2212"/>
       <use x="83.789062" xlink:href="#DejaVuSans-35"/>
      </g>
     </g>
    </g>
    <g id="ytick_3">
     <g id="line2d_8">
      <g>
       <use style="stroke:#000000;stroke-width:0.8;" x="67.5" xlink:href="#m5b4fe9f642" y="151.870578"/>
      </g>
     </g>
     <g id="text_8">
      <!-- 0 -->
      <g transform="translate(54.1375 155.669797)scale(0.1 -0.1)">
       <use xlink:href="#DejaVuSans-30"/>
      </g>
     </g>
    </g>
    <g id="ytick_4">
     <g id="line2d_9">
      <g>
       <use style="stroke:#000000;stroke-width:0.8;" x="67.5" xlink:href="#m5b4fe9f642" y="114.07619"/>
      </g>
     </g>
     <g id="text_9">
      <!-- 5 -->
      <g transform="translate(54.1375 117.875408)scale(0.1 -0.1)">
       <use xlink:href="#DejaVuSans-35"/>
      </g>
     </g>
    </g>
   </g>
   <g id="line2d_10">
    <path clip-path="url(#p91b6cdcd22)" d="M 76.146694 151.870578 
L 79.675957 147.769095 
L 83.20522 143.055926 
L 86.734483 140.555378 
L 90.263746 141.642467 
L 93.793009 146.77207 
L 97.322272 153.86182 
L 100.851535 155.480115 
L 104.380798 147.535673 
L 107.910061 135.477676 
L 111.439324 125.184798 
L 114.968587 119.724163 
L 118.49785 123.002233 
L 122.027112 131.277862 
L 125.556375 149.322177 
L 129.085638 166.639897 
L 132.614901 171.705216 
L 136.144164 168.702236 
L 139.673427 160.439806 
L 143.20269 150.62236 
L 146.731953 150.765252 
L 150.261216 163.047948 
L 153.790479 182.283702 
L 157.319742 199.605618 
L 160.849005 209.57525 
L 164.378268 207.971787 
L 167.907531 197.656747 
L 171.436794 180.228034 
L 174.966057 159.315197 
L 178.49532 143.005715 
L 182.024583 136.621697 
L 185.553846 137.183243 
L 189.083108 138.651299 
L 192.612371 143.133128 
L 196.141634 146.834769 
L 199.670897 145.333958 
L 203.20016 144.447558 
L 206.729423 146.699364 
L 210.258686 148.681512 
L 213.787949 151.429481 
L 217.317212 153.185299 
L 220.846475 152.405954 
L 224.375738 152.691137 
L 227.905001 151.488031 
L 231.434264 147.839673 
L 234.963527 140.91859 
L 238.49279 137.447254 
L 242.022053 137.851556 
L 245.551316 143.506499 
L 249.080579 151.870578 
" style="fill:none;stroke:#999999;stroke-linecap:square;stroke-width:1.5;"/>
   </g>
   <g id="line2d_11">
    <path clip-path="url(#p91b6cdcd22)" d="M 76.146694 151.870578 
L 79.675957 138.579507 
L 83.20522 144.603581 
L 86.734483 153.697001 
L 90.263746 159.394577 
L 93.793009 158.703065 
L 97.322272 149.201777 
L 100.851535 143.673445 
L 104.380798 139.305997 
L 107.910061 135.144746 
L 111.439324 133.231224 
L 114.968587 143.985275 
L 118.49785 158.065552 
L 122.027112 148.122363 
L 125.556375 130.717752 
L 129.085638 113.768195 
L 132.614901 98.537702 
L 136.144164 93.982706 
L 139.673427 93.66738 
L 143.20269 97.863417 
L 146.731953 113.978653 
L 150.261216 122.061105 
L 153.790479 152.204146 
L 157.319742 170.650845 
L 160.849005 179.773623 
L 164.378268 209.894992 
L 167.907531 232.038908 
L 171.436794 239.014973 
L 174.966057 216.196032 
L 178.49532 195.374262 
L 182.024583 186.57743 
L 185.553846 177.977082 
L 189.083108 160.919 
L 192.612371 154.556496 
L 196.141634 157.879621 
L 199.670897 155.218446 
L 203.20016 150.108767 
L 206.729423 139.982283 
L 210.258686 141.223691 
L 213.787949 157.455161 
L 217.317212 170.135687 
L 220.846475 167.893211 
L 224.375738 157.734291 
L 227.905001 149.998645 
L 231.434264 145.884259 
L 234.963527 141.132966 
L 238.49279 143.29361 
L 242.022053 140.864033 
L 245.551316 143.570823 
L 249.080579 151.870578 
" style="fill:none;stroke:#000000;stroke-linecap:square;stroke-width:1.5;"/>
   </g>
   <g id="patch_3">
    <path d="M 67.5 246.282353 
L 67.5 86.4 
" style="fill:none;stroke:#000000;stroke-linecap:square;stroke-linejoin:miter;stroke-width:0.8;"/>
   </g>
   <g id="patch_4">
    <path d="M 257.727273 246.282353 
L 257.727273 86.4 
" style="fill:none;stroke:#000000;stroke-linecap:square;stroke-linejoin:miter;stroke-width:0.8;"/>
   </g>
   <g id="patch_5">
    <path d="M 67.5 246.282353 
L 257.727273 246.282353 
" style="fill:none;stroke:#000000;stroke-linecap:square;stroke-linejoin:miter;stroke-width:0.8;"/>
   </g>
   <g id="patch_6">
    <path d="M 67.5 86.4 
L 257.727273 86.4 
" style="fill:none;stroke:#000000;stroke-linecap:square;stroke-linejoin:miter;stroke-width:0.8;"/>
   </g>
   <g id="text_10">
    <!-- A -->
    <defs>
     <path d="M 34.1875 63.1875 
L 20.796875 26.90625 
L 47.609375 26.90625 
z
M 28.609375 72.90625 
L 39.796875 72.90625 
L 67.578125 0 
L 57.328125 0 
L 50.6875 18.703125 
L 17.828125 18.703125 
L 11.1875 0 
L 0.78125 0 
z
" id="DejaVuSans-41"/>
    </defs>
    <g transform="translate(77.011364 102.388235)scale(0.1 -0.1)">
     <use xlink:href="#DejaVuSans-41"/>
    </g>
   </g>
  </g>
  <g id="axes_2">
   <g id="patch_7">
    <path d="M 295.772727 246.282353 
L 486 246.282353 
L 486 86.4 
L 295.772727 86.4 
z
" style="fill:#ffffff;"/>
   </g>
   <g id="matplotlib.axis_3">
    <g id="xtick_6">
     <g id="line2d_12">
      <g>
       <use style="stroke:#000000;stroke-width:0.8;" x="317.389463" xlink:href="#ma768baa577" y="246.282353"/>
      </g>
     </g>
     <g id="text_11">
      <!-- −0.4 -->
      <g transform="translate(305.248057 260.88079)scale(0.1 -0.1)">
       <use xlink:href="#DejaVuSans-2212"/>
       <use x="83.789062" xlink:href="#DejaVuSans-30"/>
       <use x="147.412109" xlink:href="#DejaVuSans-2e"/>
       <use x="179.199219" xlink:href="#DejaVuSans-34"/>
      </g>
     </g>
    </g>
    <g id="xtick_7">
     <g id="line2d_13">
      <g>
       <use style="stroke:#000000;stroke-width:0.8;" x="354.137913" xlink:href="#ma768baa577" y="246.282353"/>
      </g>
     </g>
     <g id="text_12">
      <!-- −0.2 -->
      <g transform="translate(341.996507 260.88079)scale(0.1 -0.1)">
       <use xlink:href="#DejaVuSans-2212"/>
       <use x="83.789062" xlink:href="#DejaVuSans-30"/>
       <use x="147.412109" xlink:href="#DejaVuSans-2e"/>
       <use x="179.199219" xlink:href="#DejaVuSans-32"/>
      </g>
     </g>
    </g>
    <g id="xtick_8">
     <g id="line2d_14">
      <g>
       <use style="stroke:#000000;stroke-width:0.8;" x="390.886364" xlink:href="#ma768baa577" y="246.282353"/>
      </g>
     </g>
     <g id="text_13">
      <!-- 0.0 -->
      <g transform="translate(382.934801 260.88079)scale(0.1 -0.1)">
       <use xlink:href="#DejaVuSans-30"/>
       <use x="63.623047" xlink:href="#DejaVuSans-2e"/>
       <use x="95.410156" xlink:href="#DejaVuSans-30"/>
      </g>
     </g>
    </g>
    <g id="xtick_9">
     <g id="line2d_15">
      <g>
       <use style="stroke:#000000;stroke-width:0.8;" x="427.634814" xlink:href="#ma768baa577" y="246.282353"/>
      </g>
     </g>
     <g id="text_14">
      <!-- 0.2 -->
      <g transform="translate(419.683252 260.88079)scale(0.1 -0.1)">
       <use xlink:href="#DejaVuSans-30"/>
       <use x="63.623047" xlink:href="#DejaVuSans-2e"/>
       <use x="95.410156" xlink:href="#DejaVuSans-32"/>
      </g>
     </g>
    </g>
    <g id="xtick_10">
     <g id="line2d_16">
      <g>
       <use style="stroke:#000000;stroke-width:0.8;" x="464.383264" xlink:href="#ma768baa577" y="246.282353"/>
      </g>
     </g>
     <g id="text_15">
      <!-- 0.4 -->
      <g transform="translate(456.431702 260.88079)scale(0.1 -0.1)">
       <use xlink:href="#DejaVuSans-30"/>
       <use x="63.623047" xlink:href="#DejaVuSans-2e"/>
       <use x="95.410156" xlink:href="#DejaVuSans-34"/>
      </g>
     </g>
    </g>
   </g>
   <g id="matplotlib.axis_4">
    <g id="ytick_5">
     <g id="line2d_17">
      <g>
       <use style="stroke:#000000;stroke-width:0.8;" x="295.772727" xlink:href="#m5b4fe9f642" y="243.983803"/>
      </g>
     </g>
     <g id="text_16">
      <!-- −10 -->
      <g transform="translate(267.66804 247.783022)scale(0.1 -0.1)">
       <use xlink:href="#DejaVuSans-2212"/>
       <use x="83.789062" xlink:href="#DejaVuSans-31"/>
       <use x="147.412109" xlink:href="#DejaVuSans-30"/>
      </g>
     </g>
    </g>
    <g id="ytick_6">
     <g id="line2d_18">
      <g>
       <use style="stroke:#000000;stroke-width:0.8;" x="295.772727" xlink:href="#m5b4fe9f642" y="199.586079"/>
      </g>
     </g>
     <g id="text_17">
      <!-- −5 -->
      <g transform="translate(274.03054 203.385298)scale(0.1 -0.1)">
       <use xlink:href="#DejaVuSans-2212"/>
       <use x="83.789062" xlink:href="#DejaVuSans-35"/>
      </g>
     </g>
    </g>
    <g id="ytick_7">
     <g id="line2d_19">
      <g>
       <use style="stroke:#000000;stroke-width:0.8;" x="295.772727" xlink:href="#m5b4fe9f642" y="155.188356"/>
      </g>
     </g>
     <g id="text_18">
      <!-- 0 -->
      <g transform="translate(282.410227 158.987574)scale(0.1 -0.1)">
       <use xlink:href="#DejaVuSans-30"/>
      </g>
     </g>
    </g>
    <g id="ytick_8">
     <g id="line2d_20">
      <g>
       <use style="stroke:#000000;stroke-width:0.8;" x="295.772727" xlink:href="#m5b4fe9f642" y="110.790632"/>
      </g>
     </g>
     <g id="text_19">
      <!-- 5 -->
      <g transform="translate(282.410227 114.58985)scale(0.1 -0.1)">
       <use xlink:href="#DejaVuSans-35"/>
      </g>
     </g>
    </g>
   </g>
   <g id="line2d_21">
    <path clip-path="url(#p0a4d057ca6)" d="M 304.419421 155.188356 
L 307.948684 151.212002 
L 311.477947 150.542728 
L 315.00721 153.398379 
L 318.536473 158.172169 
L 322.065736 158.940094 
L 325.594999 155.640418 
L 329.124262 149.362963 
L 332.653525 140.681847 
L 336.182788 132.857769 
L 339.712051 129.464631 
L 343.241314 128.265598 
L 346.770577 132.075162 
L 350.29984 143.498711 
L 353.829103 156.094718 
L 357.358366 163.104656 
L 360.887629 159.156763 
L 364.416892 147.358546 
L 367.946154 135.500798 
L 371.475417 132.666925 
L 375.00468 142.232138 
L 378.533943 158.617539 
L 382.063206 176.5699 
L 385.592469 190.060103 
L 389.121732 196.312712 
L 392.650995 198.067027 
L 396.180258 195.982867 
L 399.709521 188.780507 
L 403.238784 176.480125 
L 406.768047 164.856765 
L 410.29731 157.387558 
L 413.826573 152.523628 
L 417.355836 148.721968 
L 420.885099 141.147966 
L 424.414362 131.064538 
L 427.943625 124.118124 
L 431.472888 124.599673 
L 435.00215 139.320587 
L 438.531413 157.442143 
L 442.060676 170.184881 
L 445.589939 176.793889 
L 449.119202 177.13408 
L 452.648465 175.321699 
L 456.177728 168.828702 
L 459.706991 159.358003 
L 463.236254 149.735994 
L 466.765517 142.916846 
L 470.29478 143.041189 
L 473.824043 148.257804 
L 477.353306 155.188356 
" style="fill:none;stroke:#999999;stroke-linecap:square;stroke-width:1.5;"/>
   </g>
   <g id="line2d_22">
    <path clip-path="url(#p0a4d057ca6)" d="M 304.419421 155.188356 
L 307.948684 150.433617 
L 311.477947 150.403463 
L 315.00721 153.093674 
L 318.536473 152.872862 
L 322.065736 151.081138 
L 325.594999 159.578338 
L 329.124262 161.186154 
L 332.653525 153.799785 
L 336.182788 134.275236 
L 339.712051 132.031714 
L 343.241314 137.321282 
L 346.770577 148.905555 
L 350.29984 153.867253 
L 353.829103 136.783962 
L 357.358366 116.797387 
L 360.887629 111.740243 
L 364.416892 114.355932 
L 367.946154 106.670689 
L 371.475417 95.769459 
L 375.00468 93.66738 
L 378.533943 101.263397 
L 382.063206 135.125443 
L 385.592469 159.517072 
L 389.121732 164.646309 
L 392.650995 161.507058 
L 396.180258 166.70365 
L 399.709521 187.932142 
L 403.238784 219.454629 
L 406.768047 239.014973 
L 410.29731 237.47824 
L 413.826573 222.151405 
L 417.355836 202.415677 
L 420.885099 177.411684 
L 424.414362 152.114671 
L 427.943625 144.758673 
L 431.472888 150.818334 
L 435.00215 168.577185 
L 438.531413 171.837216 
L 442.060676 157.624328 
L 445.589939 152.013401 
L 449.119202 160.52811 
L 452.648465 175.612541 
L 456.177728 175.17842 
L 459.706991 162.049774 
L 463.236254 149.543563 
L 466.765517 143.362312 
L 470.29478 145.077547 
L 473.824043 150.571757 
L 477.353306 155.188356 
" style="fill:none;stroke:#000000;stroke-linecap:square;stroke-width:1.5;"/>
   </g>
   <g id="patch_8">
    <path d="M 295.772727 246.282353 
L 295.772727 86.4 
" style="fill:none;stroke:#000000;stroke-linecap:square;stroke-linejoin:miter;stroke-width:0.8;"/>
   </g>
   <g id="patch_9">
    <path d="M 486 246.282353 
L 486 86.4 
" style="fill:none;stroke:#000000;stroke-linecap:square;stroke-linejoin:miter;stroke-width:0.8;"/>
   </g>
   <g id="patch_10">
    <path d="M 295.772727 246.282353 
L 486 246.282353 
" style="fill:none;stroke:#000000;stroke-linecap:square;stroke-linejoin:miter;stroke-width:0.8;"/>
   </g>
   <g id="patch_11">
    <path d="M 295.772727 86.4 
L 486 86.4 
" style="fill:none;stroke:#000000;stroke-linecap:square;stroke-linejoin:miter;stroke-width:0.8;"/>
   </g>
   <g id="text_20">
    <!-- C -->
    <defs>
     <path d="M 64.40625 67.28125 
L 64.40625 56.890625 
Q 59.421875 61.53125 53.78125 63.8125 
Q 48.140625 66.109375 41.796875 66.109375 
Q 29.296875 66.109375 22.65625 58.46875 
Q 16.015625 50.828125 16.015625 36.375 
Q 16.015625 21.96875 22.65625 14.328125 
Q 29.296875 6.6875 41.796875 6.6875 
Q 48.140625 6.6875 53.78125 8.984375 
Q 59.421875 11.28125 64.40625 15.921875 
L 64.40625 5.609375 
Q 59.234375 2.09375 53.4375 0.328125 
Q 47.65625 -1.421875 41.21875 -1.421875 
Q 24.65625 -1.421875 15.125 8.703125 
Q 5.609375 18.84375 5.609375 36.375 
Q 5.609375 53.953125 15.125 64.078125 
Q 24.65625 74.21875 41.21875 74.21875 
Q 47.75 74.21875 53.53125 72.484375 
Q 59.328125 70.75 64.40625 67.28125 
z
" id="DejaVuSans-43"/>
    </defs>
    <g transform="translate(305.284091 102.388235)scale(0.1 -0.1)">
     <use xlink:href="#DejaVuSans-43"/>
    </g>
   </g>
  </g>
  <g id="axes_3">
   <g id="patch_12">
    <path d="M 67.5 438.141176 
L 257.727273 438.141176 
L 257.727273 278.258824 
L 67.5 278.258824 
z
" style="fill:#ffffff;"/>
   </g>
   <g id="matplotlib.axis_5">
    <g id="xtick_11">
     <g id="line2d_23">
      <g>
       <use style="stroke:#000000;stroke-width:0.8;" x="89.116736" xlink:href="#ma768baa577" y="438.141176"/>
      </g>
     </g>
     <g id="text_21">
      <!-- −0.4 -->
      <g transform="translate(76.975329 452.739614)scale(0.1 -0.1)">
       <use xlink:href="#DejaVuSans-2212"/>
       <use x="83.789062" xlink:href="#DejaVuSans-30"/>
       <use x="147.412109" xlink:href="#DejaVuSans-2e"/>
       <use x="179.199219" xlink:href="#DejaVuSans-34"/>
      </g>
     </g>
    </g>
    <g id="xtick_12">
     <g id="line2d_24">
      <g>
       <use style="stroke:#000000;stroke-width:0.8;" x="125.865186" xlink:href="#ma768baa577" y="438.141176"/>
      </g>
     </g>
     <g id="text_22">
      <!-- −0.2 -->
      <g transform="translate(113.72378 452.739614)scale(0.1 -0.1)">
       <use xlink:href="#DejaVuSans-2212"/>
       <use x="83.789062" xlink:href="#DejaVuSans-30"/>
       <use x="147.412109" xlink:href="#DejaVuSans-2e"/>
       <use x="179.199219" xlink:href="#DejaVuSans-32"/>
      </g>
     </g>
    </g>
    <g id="xtick_13">
     <g id="line2d_25">
      <g>
       <use style="stroke:#000000;stroke-width:0.8;" x="162.613636" xlink:href="#ma768baa577" y="438.141176"/>
      </g>
     </g>
     <g id="text_23">
      <!-- 0.0 -->
      <g transform="translate(154.662074 452.739614)scale(0.1 -0.1)">
       <use xlink:href="#DejaVuSans-30"/>
       <use x="63.623047" xlink:href="#DejaVuSans-2e"/>
       <use x="95.410156" xlink:href="#DejaVuSans-30"/>
      </g>
     </g>
    </g>
    <g id="xtick_14">
     <g id="line2d_26">
      <g>
       <use style="stroke:#000000;stroke-width:0.8;" x="199.362087" xlink:href="#ma768baa577" y="438.141176"/>
      </g>
     </g>
     <g id="text_24">
      <!-- 0.2 -->
      <g transform="translate(191.410524 452.739614)scale(0.1 -0.1)">
       <use xlink:href="#DejaVuSans-30"/>
       <use x="63.623047" xlink:href="#DejaVuSans-2e"/>
       <use x="95.410156" xlink:href="#DejaVuSans-32"/>
      </g>
     </g>
    </g>
    <g id="xtick_15">
     <g id="line2d_27">
      <g>
       <use style="stroke:#000000;stroke-width:0.8;" x="236.110537" xlink:href="#ma768baa577" y="438.141176"/>
      </g>
     </g>
     <g id="text_25">
      <!-- 0.4 -->
      <g transform="translate(228.158975 452.739614)scale(0.1 -0.1)">
       <use xlink:href="#DejaVuSans-30"/>
       <use x="63.623047" xlink:href="#DejaVuSans-2e"/>
       <use x="95.410156" xlink:href="#DejaVuSans-34"/>
      </g>
     </g>
    </g>
   </g>
   <g id="matplotlib.axis_6">
    <g id="ytick_9">
     <g id="line2d_28">
      <g>
       <use style="stroke:#000000;stroke-width:0.8;" x="67.5" xlink:href="#m5b4fe9f642" y="423.827282"/>
      </g>
     </g>
     <g id="text_26">
      <!-- −20 -->
      <g transform="translate(39.395313 427.626501)scale(0.1 -0.1)">
       <use xlink:href="#DejaVuSans-2212"/>
       <use x="83.789062" xlink:href="#DejaVuSans-32"/>
       <use x="147.412109" xlink:href="#DejaVuSans-30"/>
      </g>
     </g>
    </g>
    <g id="ytick_10">
     <g id="line2d_29">
      <g>
       <use style="stroke:#000000;stroke-width:0.8;" x="67.5" xlink:href="#m5b4fe9f642" y="385.226266"/>
      </g>
     </g>
     <g id="text_27">
      <!-- −10 -->
      <g transform="translate(39.395313 389.025485)scale(0.1 -0.1)">
       <use xlink:href="#DejaVuSans-2212"/>
       <use x="83.789062" xlink:href="#DejaVuSans-31"/>
       <use x="147.412109" xlink:href="#DejaVuSans-30"/>
      </g>
     </g>
    </g>
    <g id="ytick_11">
     <g id="line2d_30">
      <g>
       <use style="stroke:#000000;stroke-width:0.8;" x="67.5" xlink:href="#m5b4fe9f642" y="346.62525"/>
      </g>
     </g>
     <g id="text_28">
      <!-- 0 -->
      <g transform="translate(54.1375 350.424469)scale(0.1 -0.1)">
       <use xlink:href="#DejaVuSans-30"/>
      </g>
     </g>
    </g>
    <g id="ytick_12">
     <g id="line2d_31">
      <g>
       <use style="stroke:#000000;stroke-width:0.8;" x="67.5" xlink:href="#m5b4fe9f642" y="308.024234"/>
      </g>
     </g>
     <g id="text_29">
      <!-- 10 -->
      <g transform="translate(47.775 311.823452)scale(0.1 -0.1)">
       <use xlink:href="#DejaVuSans-31"/>
       <use x="63.623047" xlink:href="#DejaVuSans-30"/>
      </g>
     </g>
    </g>
   </g>
   <g id="line2d_32">
    <path clip-path="url(#pd675b1c9d8)" d="M 76.146694 346.62525 
L 79.675957 344.92963 
L 83.20522 348.359842 
L 86.734483 349.756187 
L 90.263746 345.993308 
L 93.793009 339.998479 
L 97.322272 334.763861 
L 100.851535 337.126235 
L 104.380798 347.289795 
L 107.910061 357.423894 
L 111.439324 359.258512 
L 114.968587 355.448693 
L 118.49785 351.063617 
L 122.027112 344.526829 
L 125.556375 339.845598 
L 129.085638 337.712811 
L 132.614901 334.3791 
L 136.144164 327.365622 
L 139.673427 320.437659 
L 143.20269 321.69134 
L 146.731953 334.129629 
L 150.261216 356.796155 
L 153.790479 378.936756 
L 157.319742 390.48826 
L 160.849005 385.252687 
L 164.378268 368.451656 
L 167.907531 351.540996 
L 171.436794 341.166086 
L 174.966057 335.756901 
L 178.49532 335.005276 
L 182.024583 339.967495 
L 185.553846 344.702495 
L 189.083108 346.530883 
L 192.612371 346.324786 
L 196.141634 346.615242 
L 199.670897 347.528466 
L 203.20016 346.880605 
L 206.729423 342.6477 
L 210.258686 342.671811 
L 213.787949 348.754964 
L 217.317212 354.878502 
L 220.846475 353.702196 
L 224.375738 346.870091 
L 227.905001 340.061436 
L 231.434264 336.733977 
L 234.963527 339.685243 
L 238.49279 344.569827 
L 242.022053 348.199201 
L 245.551316 348.845339 
L 249.080579 346.62525 
" style="fill:none;stroke:#999999;stroke-linecap:square;stroke-width:1.5;"/>
   </g>
   <g id="line2d_33">
    <path clip-path="url(#pd675b1c9d8)" d="M 76.146694 346.62525 
L 79.675957 338.914289 
L 83.20522 346.929014 
L 86.734483 350.472182 
L 90.263746 351.514509 
L 93.793009 348.303287 
L 97.322272 342.659901 
L 100.851535 334.463507 
L 104.380798 344.302141 
L 107.910061 356.978796 
L 111.439324 360.246334 
L 114.968587 347.434339 
L 118.49785 342.947992 
L 122.027112 334.785115 
L 125.556375 330.835706 
L 129.085638 343.595173 
L 132.614901 347.195865 
L 136.144164 332.165985 
L 139.673427 316.100095 
L 143.20269 297.780848 
L 146.731953 285.526203 
L 150.261216 292.137623 
L 153.790479 316.332237 
L 157.319742 330.080997 
L 160.849005 352.680006 
L 164.378268 387.082861 
L 167.907531 417.305023 
L 171.436794 430.873797 
L 174.966057 404.360389 
L 178.49532 370.678294 
L 182.024583 356.177219 
L 185.553846 349.678055 
L 189.083108 342.377722 
L 192.612371 338.290098 
L 196.141634 346.893101 
L 199.670897 355.06202 
L 203.20016 349.995678 
L 206.729423 339.502671 
L 210.258686 338.698086 
L 213.787949 346.303395 
L 217.317212 355.203192 
L 220.846475 348.592185 
L 224.375738 342.016239 
L 227.905001 341.330364 
L 231.434264 341.524497 
L 234.963527 346.214554 
L 238.49279 351.777769 
L 242.022053 346.879086 
L 245.551316 347.427711 
L 249.080579 346.62525 
" style="fill:none;stroke:#000000;stroke-linecap:square;stroke-width:1.5;"/>
   </g>
   <g id="patch_13">
    <path d="M 67.5 438.141176 
L 67.5 278.258824 
" style="fill:none;stroke:#000000;stroke-linecap:square;stroke-linejoin:miter;stroke-width:0.8;"/>
   </g>
   <g id="patch_14">
    <path d="M 257.727273 438.141176 
L 257.727273 278.258824 
" style="fill:none;stroke:#000000;stroke-linecap:square;stroke-linejoin:miter;stroke-width:0.8;"/>
   </g>
   <g id="patch_15">
    <path d="M 67.5 438.141176 
L 257.727273 438.141176 
" style="fill:none;stroke:#000000;stroke-linecap:square;stroke-linejoin:miter;stroke-width:0.8;"/>
   </g>
   <g id="patch_16">
    <path d="M 67.5 278.258824 
L 257.727273 278.258824 
" style="fill:none;stroke:#000000;stroke-linecap:square;stroke-linejoin:miter;stroke-width:0.8;"/>
   </g>
   <g id="text_30">
    <!-- H -->
    <defs>
     <path d="M 9.8125 72.90625 
L 19.671875 72.90625 
L 19.671875 43.015625 
L 55.515625 43.015625 
L 55.515625 72.90625 
L 65.375 72.90625 
L 65.375 0 
L 55.515625 0 
L 55.515625 34.71875 
L 19.671875 34.71875 
L 19.671875 0 
L 9.8125 0 
z
" id="DejaVuSans-48"/>
    </defs>
    <g transform="translate(77.011364 294.247059)scale(0.1 -0.1)">
     <use xlink:href="#DejaVuSans-48"/>
    </g>
   </g>
  </g>
  <g id="axes_4">
   <g id="patch_17">
    <path d="M 295.772727 438.141176 
L 486 438.141176 
L 486 278.258824 
L 295.772727 278.258824 
z
" style="fill:#ffffff;"/>
   </g>
   <g id="matplotlib.axis_7">
    <g id="xtick_16">
     <g id="line2d_34">
      <g>
       <use style="stroke:#000000;stroke-width:0.8;" x="317.389463" xlink:href="#ma768baa577" y="438.141176"/>
      </g>
     </g>
     <g id="text_31">
      <!-- −0.4 -->
      <g transform="translate(305.248057 452.739614)scale(0.1 -0.1)">
       <use xlink:href="#DejaVuSans-2212"/>
       <use x="83.789062" xlink:href="#DejaVuSans-30"/>
       <use x="147.412109" xlink:href="#DejaVuSans-2e"/>
       <use x="179.199219" xlink:href="#DejaVuSans-34"/>
      </g>
     </g>
    </g>
    <g id="xtick_17">
     <g id="line2d_35">
      <g>
       <use style="stroke:#000000;stroke-width:0.8;" x="354.137913" xlink:href="#ma768baa577" y="438.141176"/>
      </g>
     </g>
     <g id="text_32">
      <!-- −0.2 -->
      <g transform="translate(341.996507 452.739614)scale(0.1 -0.1)">
       <use xlink:href="#DejaVuSans-2212"/>
       <use x="83.789062" xlink:href="#DejaVuSans-30"/>
       <use x="147.412109" xlink:href="#DejaVuSans-2e"/>
       <use x="179.199219" xlink:href="#DejaVuSans-32"/>
      </g>
     </g>
    </g>
    <g id="xtick_18">
     <g id="line2d_36">
      <g>
       <use style="stroke:#000000;stroke-width:0.8;" x="390.886364" xlink:href="#ma768baa577" y="438.141176"/>
      </g>
     </g>
     <g id="text_33">
      <!-- 0.0 -->
      <g transform="translate(382.934801 452.739614)scale(0.1 -0.1)">
       <use xlink:href="#DejaVuSans-30"/>
       <use x="63.623047" xlink:href="#DejaVuSans-2e"/>
       <use x="95.410156" xlink:href="#DejaVuSans-30"/>
      </g>
     </g>
    </g>
    <g id="xtick_19">
     <g id="line2d_37">
      <g>
       <use style="stroke:#000000;stroke-width:0.8;" x="427.634814" xlink:href="#ma768baa577" y="438.141176"/>
      </g>
     </g>
     <g id="text_34">
      <!-- 0.2 -->
      <g transform="translate(419.683252 452.739614)scale(0.1 -0.1)">
       <use xlink:href="#DejaVuSans-30"/>
       <use x="63.623047" xlink:href="#DejaVuSans-2e"/>
       <use x="95.410156" xlink:href="#DejaVuSans-32"/>
      </g>
     </g>
    </g>
    <g id="xtick_20">
     <g id="line2d_38">
      <g>
       <use style="stroke:#000000;stroke-width:0.8;" x="464.383264" xlink:href="#ma768baa577" y="438.141176"/>
      </g>
     </g>
     <g id="text_35">
      <!-- 0.4 -->
      <g transform="translate(456.431702 452.739614)scale(0.1 -0.1)">
       <use xlink:href="#DejaVuSans-30"/>
       <use x="63.623047" xlink:href="#DejaVuSans-2e"/>
       <use x="95.410156" xlink:href="#DejaVuSans-34"/>
      </g>
     </g>
    </g>
   </g>
   <g id="matplotlib.axis_8">
    <g id="ytick_13">
     <g id="line2d_39">
      <g>
       <use style="stroke:#000000;stroke-width:0.8;" x="295.772727" xlink:href="#m5b4fe9f642" y="428.137343"/>
      </g>
     </g>
     <g id="text_36">
      <!-- −20 -->
      <g transform="translate(267.66804 431.936561)scale(0.1 -0.1)">
       <use xlink:href="#DejaVuSans-2212"/>
       <use x="83.789062" xlink:href="#DejaVuSans-32"/>
       <use x="147.412109" xlink:href="#DejaVuSans-30"/>
      </g>
     </g>
    </g>
    <g id="ytick_14">
     <g id="line2d_40">
      <g>
       <use style="stroke:#000000;stroke-width:0.8;" x="295.772727" xlink:href="#m5b4fe9f642" y="389.323248"/>
      </g>
     </g>
     <g id="text_37">
      <!-- −10 -->
      <g transform="translate(267.66804 393.122466)scale(0.1 -0.1)">
       <use xlink:href="#DejaVuSans-2212"/>
       <use x="83.789062" xlink:href="#DejaVuSans-31"/>
       <use x="147.412109" xlink:href="#DejaVuSans-30"/>
      </g>
     </g>
    </g>
    <g id="ytick_15">
     <g id="line2d_41">
      <g>
       <use style="stroke:#000000;stroke-width:0.8;" x="295.772727" xlink:href="#m5b4fe9f642" y="350.509153"/>
      </g>
     </g>
     <g id="text_38">
      <!-- 0 -->
      <g transform="translate(282.410227 354.308371)scale(0.1 -0.1)">
       <use xlink:href="#DejaVuSans-30"/>
      </g>
     </g>
    </g>
    <g id="ytick_16">
     <g id="line2d_42">
      <g>
       <use style="stroke:#000000;stroke-width:0.8;" x="295.772727" xlink:href="#m5b4fe9f642" y="311.695058"/>
      </g>
     </g>
     <g id="text_39">
      <!-- 10 -->
      <g transform="translate(276.047727 315.494276)scale(0.1 -0.1)">
       <use xlink:href="#DejaVuSans-31"/>
       <use x="63.623047" xlink:href="#DejaVuSans-30"/>
      </g>
     </g>
    </g>
   </g>
   <g id="line2d_43">
    <path clip-path="url(#p44e65a1841)" d="M 304.419421 350.509153 
L 307.948684 343.23357 
L 311.477947 343.374525 
L 315.00721 349.487986 
L 318.536473 357.622294 
L 322.065736 356.989731 
L 325.594999 350.112994 
L 329.124262 341.010007 
L 332.653525 338.515952 
L 336.182788 346.43083 
L 339.712051 353.897578 
L 343.241314 351.997231 
L 346.770577 351.021949 
L 350.29984 350.304466 
L 353.829103 349.892122 
L 357.358366 350.450995 
L 360.887629 353.340382 
L 364.416892 348.063726 
L 367.946154 338.158893 
L 371.475417 327.112036 
L 375.00468 314.848401 
L 378.533943 311.154234 
L 382.063206 329.189412 
L 385.592469 366.788516 
L 389.121732 402.698972 
L 392.650995 416.099714 
L 396.180258 401.611266 
L 399.709521 375.988098 
L 403.238784 351.456107 
L 406.768047 341.939018 
L 410.29731 345.13075 
L 413.826573 355.580608 
L 417.355836 359.754393 
L 420.885099 352.425533 
L 424.414362 342.657313 
L 427.943625 335.885471 
L 431.472888 336.004669 
L 435.00215 342.977427 
L 438.531413 352.658188 
L 442.060676 357.902976 
L 445.589939 360.339673 
L 449.119202 360.046807 
L 452.648465 352.665888 
L 456.177728 342.187852 
L 459.706991 339.46108 
L 463.236254 342.284576 
L 466.765517 343.972779 
L 470.29478 346.466145 
L 473.824043 348.384495 
L 477.353306 350.509153 
" style="fill:none;stroke:#999999;stroke-linecap:square;stroke-width:1.5;"/>
   </g>
   <g id="line2d_44">
    <path clip-path="url(#p44e65a1841)" d="M 304.419421 350.509153 
L 307.948684 343.769332 
L 311.477947 348.878492 
L 315.00721 356.1178 
L 318.536473 357.085226 
L 322.065736 351.946383 
L 325.594999 348.98867 
L 329.124262 342.958074 
L 332.653525 340.378318 
L 336.182788 348.882451 
L 339.712051 355.738882 
L 343.241314 353.248551 
L 346.770577 349.954337 
L 350.29984 349.25889 
L 353.829103 350.958478 
L 357.358366 351.349142 
L 360.887629 348.395291 
L 364.416892 338.99173 
L 367.946154 329.782343 
L 371.475417 317.470339 
L 375.00468 306.44121 
L 378.533943 288.79008 
L 382.063206 285.526203 
L 385.592469 309.774862 
L 389.121732 340.274188 
L 392.650995 371.130366 
L 396.180258 397.213204 
L 399.709521 430.873797 
L 403.238784 427.421182 
L 406.768047 402.391705 
L 410.29731 375.613029 
L 413.826573 365.104134 
L 417.355836 353.957083 
L 420.885099 344.156174 
L 424.414362 340.720584 
L 427.943625 349.797156 
L 431.472888 352.466786 
L 435.00215 352.525532 
L 438.531413 353.549896 
L 442.060676 347.934742 
L 445.589939 347.771639 
L 449.119202 355.664737 
L 452.648465 358.111755 
L 456.177728 349.442009 
L 459.706991 349.063086 
L 463.236254 346.555113 
L 466.765517 343.52768 
L 470.29478 346.88648 
L 473.824043 349.500098 
L 477.353306 350.509153 
" style="fill:none;stroke:#000000;stroke-linecap:square;stroke-width:1.5;"/>
   </g>
   <g id="patch_18">
    <path d="M 295.772727 438.141176 
L 295.772727 278.258824 
" style="fill:none;stroke:#000000;stroke-linecap:square;stroke-linejoin:miter;stroke-width:0.8;"/>
   </g>
   <g id="patch_19">
    <path d="M 486 438.141176 
L 486 278.258824 
" style="fill:none;stroke:#000000;stroke-linecap:square;stroke-linejoin:miter;stroke-width:0.8;"/>
   </g>
   <g id="patch_20">
    <path d="M 295.772727 438.141176 
L 486 438.141176 
" style="fill:none;stroke:#000000;stroke-linecap:square;stroke-linejoin:miter;stroke-width:0.8;"/>
   </g>
   <g id="patch_21">
    <path d="M 295.772727 278.258824 
L 486 278.258824 
" style="fill:none;stroke:#000000;stroke-linecap:square;stroke-linejoin:miter;stroke-width:0.8;"/>
   </g>
   <g id="text_40">
    <!-- T -->
    <defs>
     <path d="M -0.296875 72.90625 
L 61.375 72.90625 
L 61.375 64.59375 
L 35.5 64.59375 
L 35.5 0 
L 25.59375 0 
L 25.59375 64.59375 
L -0.296875 64.59375 
z
" id="DejaVuSans-54"/>
    </defs>
    <g transform="translate(305.284091 294.247059)scale(0.1 -0.1)">
     <use xlink:href="#DejaVuSans-54"/>
    </g>
   </g>
  </g>
  <g id="axes_5">
   <g id="patch_22">
    <path d="M 67.5 630 
L 257.727273 630 
L 257.727273 470.117647 
L 67.5 470.117647 
z
" style="fill:#ffffff;"/>
   </g>
   <g id="matplotlib.axis_9">
    <g id="xtick_21">
     <g id="line2d_45">
      <g>
       <use style="stroke:#000000;stroke-width:0.8;" x="89.116736" xlink:href="#ma768baa577" y="630"/>
      </g>
     </g>
     <g id="text_41">
      <!-- −0.4 -->
      <g transform="translate(76.975329 644.598438)scale(0.1 -0.1)">
       <use xlink:href="#DejaVuSans-2212"/>
       <use x="83.789062" xlink:href="#DejaVuSans-30"/>
       <use x="147.412109" xlink:href="#DejaVuSans-2e"/>
       <use x="179.199219" xlink:href="#DejaVuSans-34"/>
      </g>
     </g>
    </g>
    <g id="xtick_22">
     <g id="line2d_46">
      <g>
       <use style="stroke:#000000;stroke-width:0.8;" x="125.865186" xlink:href="#ma768baa577" y="630"/>
      </g>
     </g>
     <g id="text_42">
      <!-- −0.2 -->
      <g transform="translate(113.72378 644.598438)scale(0.1 -0.1)">
       <use xlink:href="#DejaVuSans-2212"/>
       <use x="83.789062" xlink:href="#DejaVuSans-30"/>
       <use x="147.412109" xlink:href="#DejaVuSans-2e"/>
       <use x="179.199219" xlink:href="#DejaVuSans-32"/>
      </g>
     </g>
    </g>
    <g id="xtick_23">
     <g id="line2d_47">
      <g>
       <use style="stroke:#000000;stroke-width:0.8;" x="162.613636" xlink:href="#ma768baa577" y="630"/>
      </g>
     </g>
     <g id="text_43">
      <!-- 0.0 -->
      <g transform="translate(154.662074 644.598438)scale(0.1 -0.1)">
       <use xlink:href="#DejaVuSans-30"/>
       <use x="63.623047" xlink:href="#DejaVuSans-2e"/>
       <use x="95.410156" xlink:href="#DejaVuSans-30"/>
      </g>
     </g>
    </g>
    <g id="xtick_24">
     <g id="line2d_48">
      <g>
       <use style="stroke:#000000;stroke-width:0.8;" x="199.362087" xlink:href="#ma768baa577" y="630"/>
      </g>
     </g>
     <g id="text_44">
      <!-- 0.2 -->
      <g transform="translate(191.410524 644.598438)scale(0.1 -0.1)">
       <use xlink:href="#DejaVuSans-30"/>
       <use x="63.623047" xlink:href="#DejaVuSans-2e"/>
       <use x="95.410156" xlink:href="#DejaVuSans-32"/>
      </g>
     </g>
    </g>
    <g id="xtick_25">
     <g id="line2d_49">
      <g>
       <use style="stroke:#000000;stroke-width:0.8;" x="236.110537" xlink:href="#ma768baa577" y="630"/>
      </g>
     </g>
     <g id="text_45">
      <!-- 0.4 -->
      <g transform="translate(228.158975 644.598438)scale(0.1 -0.1)">
       <use xlink:href="#DejaVuSans-30"/>
       <use x="63.623047" xlink:href="#DejaVuSans-2e"/>
       <use x="95.410156" xlink:href="#DejaVuSans-34"/>
      </g>
     </g>
    </g>
   </g>
   <g id="matplotlib.axis_10">
    <g id="ytick_17">
     <g id="line2d_50">
      <g>
       <use style="stroke:#000000;stroke-width:0.8;" x="67.5" xlink:href="#m5b4fe9f642" y="587.033724"/>
      </g>
     </g>
     <g id="text_46">
      <!-- −20 -->
      <g transform="translate(39.395313 590.832943)scale(0.1 -0.1)">
       <use xlink:href="#DejaVuSans-2212"/>
       <use x="83.789062" xlink:href="#DejaVuSans-32"/>
       <use x="147.412109" xlink:href="#DejaVuSans-30"/>
      </g>
     </g>
    </g>
    <g id="ytick_18">
     <g id="line2d_51">
      <g>
       <use style="stroke:#000000;stroke-width:0.8;" x="67.5" xlink:href="#m5b4fe9f642" y="542.984924"/>
      </g>
     </g>
     <g id="text_47">
      <!-- 0 -->
      <g transform="translate(54.1375 546.784142)scale(0.1 -0.1)">
       <use xlink:href="#DejaVuSans-30"/>
      </g>
     </g>
    </g>
    <g id="ytick_19">
     <g id="line2d_52">
      <g>
       <use style="stroke:#000000;stroke-width:0.8;" x="67.5" xlink:href="#m5b4fe9f642" y="498.936123"/>
      </g>
     </g>
     <g id="text_48">
      <!-- 20 -->
      <g transform="translate(47.775 502.735342)scale(0.1 -0.1)">
       <use xlink:href="#DejaVuSans-32"/>
       <use x="63.623047" xlink:href="#DejaVuSans-30"/>
      </g>
     </g>
    </g>
   </g>
   <g id="line2d_53">
    <path clip-path="url(#p5f43edc91c)" d="M 76.146694 542.984924 
L 79.675957 549.517955 
L 83.20522 550.551381 
L 86.734483 535.778762 
L 90.263746 528.043315 
L 93.793009 531.44181 
L 97.322272 544.146716 
L 100.851535 555.397298 
L 104.380798 554.526105 
L 107.910061 548.80366 
L 111.439324 547.211751 
L 114.968587 546.20608 
L 118.49785 542.499782 
L 122.027112 541.106459 
L 125.556375 544.05756 
L 129.085638 550.864291 
L 132.614901 548.838962 
L 136.144164 534.996791 
L 139.673427 512.33206 
L 143.20269 494.864834 
L 146.731953 491.003481 
L 150.261216 496.971408 
L 153.790479 504.998955 
L 157.319742 520.334184 
L 160.849005 541.273695 
L 164.378268 564.684716 
L 167.907531 589.280708 
L 171.436794 607.90915 
L 174.966057 603.932264 
L 178.49532 582.446957 
L 182.024583 558.095614 
L 185.553846 547.380147 
L 189.083108 539.487289 
L 192.612371 537.01429 
L 196.141634 536.694116 
L 199.670897 532.840312 
L 203.20016 536.844328 
L 206.729423 539.625545 
L 210.258686 548.414358 
L 213.787949 546.386487 
L 217.317212 540.934029 
L 220.846475 539.731795 
L 224.375738 541.45482 
L 227.905001 542.13054 
L 231.434264 542.754071 
L 234.963527 547.26997 
L 238.49279 543.394903 
L 242.022053 538.49372 
L 245.551316 539.186965 
L 249.080579 542.984924 
" style="fill:none;stroke:#999999;stroke-linecap:square;stroke-width:1.5;"/>
   </g>
   <g id="line2d_54">
    <path clip-path="url(#p5f43edc91c)" d="M 76.146694 542.984924 
L 79.675957 546.656041 
L 83.20522 545.865782 
L 86.734483 538.997711 
L 90.263746 537.726029 
L 93.793009 532.695873 
L 97.322272 541.668107 
L 100.851535 549.417798 
L 104.380798 549.898506 
L 107.910061 550.032811 
L 111.439324 548.813497 
L 114.968587 540.248929 
L 118.49785 537.437221 
L 122.027112 540.249218 
L 125.556375 538.567224 
L 129.085638 552.279257 
L 132.614901 551.27877 
L 136.144164 534.894587 
L 139.673427 514.361686 
L 143.20269 506.11552 
L 146.731953 484.257425 
L 150.261216 477.385027 
L 153.790479 500.068369 
L 157.319742 526.948575 
L 160.849005 539.863601 
L 164.378268 557.241918 
L 167.907531 587.33381 
L 171.436794 622.73262 
L 174.966057 613.692378 
L 178.49532 581.155818 
L 182.024583 556.140225 
L 185.553846 540.541345 
L 189.083108 535.680691 
L 192.612371 539.560755 
L 196.141634 543.79584 
L 199.670897 544.932396 
L 203.20016 539.660665 
L 206.729423 539.866967 
L 210.258686 545.740816 
L 213.787949 545.828113 
L 217.317212 543.539905 
L 220.846475 538.554119 
L 224.375738 541.853393 
L 227.905001 545.523597 
L 231.434264 541.798132 
L 234.963527 547.838774 
L 238.49279 545.623439 
L 242.022053 542.610999 
L 245.551316 534.560959 
L 249.080579 542.984924 
" style="fill:none;stroke:#000000;stroke-linecap:square;stroke-width:1.5;"/>
   </g>
   <g id="patch_23">
    <path d="M 67.5 630 
L 67.5 470.117647 
" style="fill:none;stroke:#000000;stroke-linecap:square;stroke-linejoin:miter;stroke-width:0.8;"/>
   </g>
   <g id="patch_24">
    <path d="M 257.727273 630 
L 257.727273 470.117647 
" style="fill:none;stroke:#000000;stroke-linecap:square;stroke-linejoin:miter;stroke-width:0.8;"/>
   </g>
   <g id="patch_25">
    <path d="M 67.5 630 
L 257.727273 630 
" style="fill:none;stroke:#000000;stroke-linecap:square;stroke-linejoin:miter;stroke-width:0.8;"/>
   </g>
   <g id="patch_26">
    <path d="M 67.5 470.117647 
L 257.727273 470.117647 
" style="fill:none;stroke:#000000;stroke-linecap:square;stroke-linejoin:miter;stroke-width:0.8;"/>
   </g>
   <g id="text_49">
    <!-- W -->
    <defs>
     <path d="M 3.328125 72.90625 
L 13.28125 72.90625 
L 28.609375 11.28125 
L 43.890625 72.90625 
L 54.984375 72.90625 
L 70.3125 11.28125 
L 85.59375 72.90625 
L 95.609375 72.90625 
L 77.296875 0 
L 64.890625 0 
L 49.515625 63.28125 
L 33.984375 0 
L 21.578125 0 
z
" id="DejaVuSans-57"/>
    </defs>
    <g transform="translate(77.011364 486.105882)scale(0.1 -0.1)">
     <use xlink:href="#DejaVuSans-57"/>
    </g>
   </g>
  </g>
  <g id="axes_6"/>
 </g>
 <defs>
  <clipPath id="p91b6cdcd22">
   <rect height="159.882353" width="190.227273" x="67.5" y="86.4"/>
  </clipPath>
  <clipPath id="p0a4d057ca6">
   <rect height="159.882353" width="190.227273" x="295.772727" y="86.4"/>
  </clipPath>
  <clipPath id="pd675b1c9d8">
   <rect height="159.882353" width="190.227273" x="67.5" y="278.258824"/>
  </clipPath>
  <clipPath id="p44e65a1841">
   <rect height="159.882353" width="190.227273" x="295.772727" y="278.258824"/>
  </clipPath>
  <clipPath id="p5f43edc91c">
   <rect height="159.882353" width="190.227273" x="67.5" y="470.117647"/>
  </clipPath>
 </defs>
</svg>
