<?xml version="1.0" encoding="utf-8" standalone="no"?>
<!DOCTYPE svg PUBLIC "-//W3C//DTD SVG 1.1//EN"
  "http://www.w3.org/Graphics/SVG/1.1/DTD/svg11.dtd">
<!-- Created with matplotlib (http://matplotlib.org/) -->
<svg height="252pt" version="1.1" viewBox="0 0 252 252" width="252pt" xmlns="http://www.w3.org/2000/svg" xmlns:xlink="http://www.w3.org/1999/xlink">
 <defs>
  <style type="text/css">
*{stroke-linecap:butt;stroke-linejoin:round;}
  </style>
 </defs>
 <g id="figure_1">
  <g id="patch_1">
   <path d="M 0 252 
L 252 252 
L 252 0 
L 0 0 
z
" style="fill:#ffffff;"/>
  </g>
  <g id="axes_1">
   <g id="patch_2">
    <path d="M 31.5 220.5 
L 226.8 220.5 
L 226.8 30.24 
L 31.5 30.24 
z
" style="fill:#ffffff;"/>
   </g>
   <g id="matplotlib.axis_1">
    <g id="xtick_1">
     <g id="line2d_1">
      <defs>
       <path d="M 0 0 
L 0 3.5 
" id="mbd5da805dc" style="stroke:#000000;stroke-width:0.8;"/>
      </defs>
      <g>
       <use style="stroke:#000000;stroke-width:0.8;" x="31.5" xlink:href="#mbd5da805dc" y="220.5"/>
      </g>
     </g>
     <g id="text_1">
      <!-- 0 -->
      <defs>
       <path d="M 31.78125 66.40625 
Q 24.171875 66.40625 20.328125 58.90625 
Q 16.5 51.421875 16.5 36.375 
Q 16.5 21.390625 20.328125 13.890625 
Q 24.171875 6.390625 31.78125 6.390625 
Q 39.453125 6.390625 43.28125 13.890625 
Q 47.125 21.390625 47.125 36.375 
Q 47.125 51.421875 43.28125 58.90625 
Q 39.453125 66.40625 31.78125 66.40625 
z
M 31.78125 74.21875 
Q 44.046875 74.21875 50.515625 64.515625 
Q 56.984375 54.828125 56.984375 36.375 
Q 56.984375 17.96875 50.515625 8.265625 
Q 44.046875 -1.421875 31.78125 -1.421875 
Q 19.53125 -1.421875 13.0625 8.265625 
Q 6.59375 17.96875 6.59375 36.375 
Q 6.59375 54.828125 13.0625 64.515625 
Q 19.53125 74.21875 31.78125 74.21875 
z
" id="DejaVuSans-30"/>
      </defs>
      <g transform="translate(28.31875 235.098437)scale(0.1 -0.1)">
       <use xlink:href="#DejaVuSans-30"/>
      </g>
     </g>
    </g>
    <g id="xtick_2">
     <g id="line2d_2">
      <g>
       <use style="stroke:#000000;stroke-width:0.8;" x="70.56" xlink:href="#mbd5da805dc" y="220.5"/>
      </g>
     </g>
     <g id="text_2">
      <!-- 2 -->
      <defs>
       <path d="M 19.1875 8.296875 
L 53.609375 8.296875 
L 53.609375 0 
L 7.328125 0 
L 7.328125 8.296875 
Q 12.9375 14.109375 22.625 23.890625 
Q 32.328125 33.6875 34.8125 36.53125 
Q 39.546875 41.84375 41.421875 45.53125 
Q 43.3125 49.21875 43.3125 52.78125 
Q 43.3125 58.59375 39.234375 62.25 
Q 35.15625 65.921875 28.609375 65.921875 
Q 23.96875 65.921875 18.8125 64.3125 
Q 13.671875 62.703125 7.8125 59.421875 
L 7.8125 69.390625 
Q 13.765625 71.78125 18.9375 73 
Q 24.125 74.21875 28.421875 74.21875 
Q 39.75 74.21875 46.484375 68.546875 
Q 53.21875 62.890625 53.21875 53.421875 
Q 53.21875 48.921875 51.53125 44.890625 
Q 49.859375 40.875 45.40625 35.40625 
Q 44.1875 33.984375 37.640625 27.21875 
Q 31.109375 20.453125 19.1875 8.296875 
z
" id="DejaVuSans-32"/>
      </defs>
      <g transform="translate(67.37875 235.098437)scale(0.1 -0.1)">
       <use xlink:href="#DejaVuSans-32"/>
      </g>
     </g>
    </g>
    <g id="xtick_3">
     <g id="line2d_3">
      <g>
       <use style="stroke:#000000;stroke-width:0.8;" x="109.62" xlink:href="#mbd5da805dc" y="220.5"/>
      </g>
     </g>
     <g id="text_3">
      <!-- 4 -->
      <defs>
       <path d="M 37.796875 64.3125 
L 12.890625 25.390625 
L 37.796875 25.390625 
z
M 35.203125 72.90625 
L 47.609375 72.90625 
L 47.609375 25.390625 
L 58.015625 25.390625 
L 58.015625 17.1875 
L 47.609375 17.1875 
L 47.609375 0 
L 37.796875 0 
L 37.796875 17.1875 
L 4.890625 17.1875 
L 4.890625 26.703125 
z
" id="DejaVuSans-34"/>
      </defs>
      <g transform="translate(106.43875 235.098437)scale(0.1 -0.1)">
       <use xlink:href="#DejaVuSans-34"/>
      </g>
     </g>
    </g>
    <g id="xtick_4">
     <g id="line2d_4">
      <g>
       <use style="stroke:#000000;stroke-width:0.8;" x="148.68" xlink:href="#mbd5da805dc" y="220.5"/>
      </g>
     </g>
     <g id="text_4">
      <!-- 6 -->
      <defs>
       <path d="M 33.015625 40.375 
Q 26.375 40.375 22.484375 35.828125 
Q 18.609375 31.296875 18.609375 23.390625 
Q 18.609375 15.53125 22.484375 10.953125 
Q 26.375 6.390625 33.015625 6.390625 
Q 39.65625 6.390625 43.53125 10.953125 
Q 47.40625 15.53125 47.40625 23.390625 
Q 47.40625 31.296875 43.53125 35.828125 
Q 39.65625 40.375 33.015625 40.375 
z
M 52.59375 71.296875 
L 52.59375 62.3125 
Q 48.875 64.0625 45.09375 64.984375 
Q 41.3125 65.921875 37.59375 65.921875 
Q 27.828125 65.921875 22.671875 59.328125 
Q 17.53125 52.734375 16.796875 39.40625 
Q 19.671875 43.65625 24.015625 45.921875 
Q 28.375 48.1875 33.59375 48.1875 
Q 44.578125 48.1875 50.953125 41.515625 
Q 57.328125 34.859375 57.328125 23.390625 
Q 57.328125 12.15625 50.6875 5.359375 
Q 44.046875 -1.421875 33.015625 -1.421875 
Q 20.359375 -1.421875 13.671875 8.265625 
Q 6.984375 17.96875 6.984375 36.375 
Q 6.984375 53.65625 15.1875 63.9375 
Q 23.390625 74.21875 37.203125 74.21875 
Q 40.921875 74.21875 44.703125 73.484375 
Q 48.484375 72.75 52.59375 71.296875 
z
" id="DejaVuSans-36"/>
      </defs>
      <g transform="translate(145.49875 235.098437)scale(0.1 -0.1)">
       <use xlink:href="#DejaVuSans-36"/>
      </g>
     </g>
    </g>
    <g id="xtick_5">
     <g id="line2d_5">
      <g>
       <use style="stroke:#000000;stroke-width:0.8;" x="187.74" xlink:href="#mbd5da805dc" y="220.5"/>
      </g>
     </g>
     <g id="text_5">
      <!-- 8 -->
      <defs>
       <path d="M 31.78125 34.625 
Q 24.75 34.625 20.71875 30.859375 
Q 16.703125 27.09375 16.703125 20.515625 
Q 16.703125 13.921875 20.71875 10.15625 
Q 24.75 6.390625 31.78125 6.390625 
Q 38.8125 6.390625 42.859375 10.171875 
Q 46.921875 13.96875 46.921875 20.515625 
Q 46.921875 27.09375 42.890625 30.859375 
Q 38.875 34.625 31.78125 34.625 
z
M 21.921875 38.8125 
Q 15.578125 40.375 12.03125 44.71875 
Q 8.5 49.078125 8.5 55.328125 
Q 8.5 64.0625 14.71875 69.140625 
Q 20.953125 74.21875 31.78125 74.21875 
Q 42.671875 74.21875 48.875 69.140625 
Q 55.078125 64.0625 55.078125 55.328125 
Q 55.078125 49.078125 51.53125 44.71875 
Q 48 40.375 41.703125 38.8125 
Q 48.828125 37.15625 52.796875 32.3125 
Q 56.78125 27.484375 56.78125 20.515625 
Q 56.78125 9.90625 50.3125 4.234375 
Q 43.84375 -1.421875 31.78125 -1.421875 
Q 19.734375 -1.421875 13.25 4.234375 
Q 6.78125 9.90625 6.78125 20.515625 
Q 6.78125 27.484375 10.78125 32.3125 
Q 14.796875 37.15625 21.921875 38.8125 
z
M 18.3125 54.390625 
Q 18.3125 48.734375 21.84375 45.5625 
Q 25.390625 42.390625 31.78125 42.390625 
Q 38.140625 42.390625 41.71875 45.5625 
Q 45.3125 48.734375 45.3125 54.390625 
Q 45.3125 60.0625 41.71875 63.234375 
Q 38.140625 66.40625 31.78125 66.40625 
Q 25.390625 66.40625 21.84375 63.234375 
Q 18.3125 60.0625 18.3125 54.390625 
z
" id="DejaVuSans-38"/>
      </defs>
      <g transform="translate(184.55875 235.098437)scale(0.1 -0.1)">
       <use xlink:href="#DejaVuSans-38"/>
      </g>
     </g>
    </g>
    <g id="xtick_6">
     <g id="line2d_6">
      <g>
       <use style="stroke:#000000;stroke-width:0.8;" x="226.8" xlink:href="#mbd5da805dc" y="220.5"/>
      </g>
     </g>
     <g id="text_6">
      <!-- 10 -->
      <defs>
       <path d="M 12.40625 8.296875 
L 28.515625 8.296875 
L 28.515625 63.921875 
L 10.984375 60.40625 
L 10.984375 69.390625 
L 28.421875 72.90625 
L 38.28125 72.90625 
L 38.28125 8.296875 
L 54.390625 8.296875 
L 54.390625 0 
L 12.40625 0 
z
" id="DejaVuSans-31"/>
      </defs>
      <g transform="translate(220.4375 235.098437)scale(0.1 -0.1)">
       <use xlink:href="#DejaVuSans-31"/>
       <use x="63.623047" xlink:href="#DejaVuSans-30"/>
      </g>
     </g>
    </g>
    <g id="text_7">
     <!-- cycles/degree -->
     <defs>
      <path d="M 48.78125 52.59375 
L 48.78125 44.1875 
Q 44.96875 46.296875 41.140625 47.34375 
Q 37.3125 48.390625 33.40625 48.390625 
Q 24.65625 48.390625 19.8125 42.84375 
Q 14.984375 37.3125 14.984375 27.296875 
Q 14.984375 17.28125 19.8125 11.734375 
Q 24.65625 6.203125 33.40625 6.203125 
Q 37.3125 6.203125 41.140625 7.25 
Q 44.96875 8.296875 48.78125 10.40625 
L 48.78125 2.09375 
Q 45.015625 0.34375 40.984375 -0.53125 
Q 36.96875 -1.421875 32.421875 -1.421875 
Q 20.0625 -1.421875 12.78125 6.34375 
Q 5.515625 14.109375 5.515625 27.296875 
Q 5.515625 40.671875 12.859375 48.328125 
Q 20.21875 56 33.015625 56 
Q 37.15625 56 41.109375 55.140625 
Q 45.0625 54.296875 48.78125 52.59375 
z
" id="DejaVuSans-63"/>
      <path d="M 32.171875 -5.078125 
Q 28.375 -14.84375 24.75 -17.8125 
Q 21.140625 -20.796875 15.09375 -20.796875 
L 7.90625 -20.796875 
L 7.90625 -13.28125 
L 13.1875 -13.28125 
Q 16.890625 -13.28125 18.9375 -11.515625 
Q 21 -9.765625 23.484375 -3.21875 
L 25.09375 0.875 
L 2.984375 54.6875 
L 12.5 54.6875 
L 29.59375 11.921875 
L 46.6875 54.6875 
L 56.203125 54.6875 
z
" id="DejaVuSans-79"/>
      <path d="M 9.421875 75.984375 
L 18.40625 75.984375 
L 18.40625 0 
L 9.421875 0 
z
" id="DejaVuSans-6c"/>
      <path d="M 56.203125 29.59375 
L 56.203125 25.203125 
L 14.890625 25.203125 
Q 15.484375 15.921875 20.484375 11.0625 
Q 25.484375 6.203125 34.421875 6.203125 
Q 39.59375 6.203125 44.453125 7.46875 
Q 49.3125 8.734375 54.109375 11.28125 
L 54.109375 2.78125 
Q 49.265625 0.734375 44.1875 -0.34375 
Q 39.109375 -1.421875 33.890625 -1.421875 
Q 20.796875 -1.421875 13.15625 6.1875 
Q 5.515625 13.8125 5.515625 26.8125 
Q 5.515625 40.234375 12.765625 48.109375 
Q 20.015625 56 32.328125 56 
Q 43.359375 56 49.78125 48.890625 
Q 56.203125 41.796875 56.203125 29.59375 
z
M 47.21875 32.234375 
Q 47.125 39.59375 43.09375 43.984375 
Q 39.0625 48.390625 32.421875 48.390625 
Q 24.90625 48.390625 20.390625 44.140625 
Q 15.875 39.890625 15.1875 32.171875 
z
" id="DejaVuSans-65"/>
      <path d="M 44.28125 53.078125 
L 44.28125 44.578125 
Q 40.484375 46.53125 36.375 47.5 
Q 32.28125 48.484375 27.875 48.484375 
Q 21.1875 48.484375 17.84375 46.4375 
Q 14.5 44.390625 14.5 40.28125 
Q 14.5 37.15625 16.890625 35.375 
Q 19.28125 33.59375 26.515625 31.984375 
L 29.59375 31.296875 
Q 39.15625 29.25 43.1875 25.515625 
Q 47.21875 21.78125 47.21875 15.09375 
Q 47.21875 7.46875 41.1875 3.015625 
Q 35.15625 -1.421875 24.609375 -1.421875 
Q 20.21875 -1.421875 15.453125 -0.5625 
Q 10.6875 0.296875 5.421875 2 
L 5.421875 11.28125 
Q 10.40625 8.6875 15.234375 7.390625 
Q 20.0625 6.109375 24.8125 6.109375 
Q 31.15625 6.109375 34.5625 8.28125 
Q 37.984375 10.453125 37.984375 14.40625 
Q 37.984375 18.0625 35.515625 20.015625 
Q 33.0625 21.96875 24.703125 23.78125 
L 21.578125 24.515625 
Q 13.234375 26.265625 9.515625 29.90625 
Q 5.8125 33.546875 5.8125 39.890625 
Q 5.8125 47.609375 11.28125 51.796875 
Q 16.75 56 26.8125 56 
Q 31.78125 56 36.171875 55.265625 
Q 40.578125 54.546875 44.28125 53.078125 
z
" id="DejaVuSans-73"/>
      <path d="M 25.390625 72.90625 
L 33.6875 72.90625 
L 8.296875 -9.28125 
L 0 -9.28125 
z
" id="DejaVuSans-2f"/>
      <path d="M 45.40625 46.390625 
L 45.40625 75.984375 
L 54.390625 75.984375 
L 54.390625 0 
L 45.40625 0 
L 45.40625 8.203125 
Q 42.578125 3.328125 38.25 0.953125 
Q 33.9375 -1.421875 27.875 -1.421875 
Q 17.96875 -1.421875 11.734375 6.484375 
Q 5.515625 14.40625 5.515625 27.296875 
Q 5.515625 40.1875 11.734375 48.09375 
Q 17.96875 56 27.875 56 
Q 33.9375 56 38.25 53.625 
Q 42.578125 51.265625 45.40625 46.390625 
z
M 14.796875 27.296875 
Q 14.796875 17.390625 18.875 11.75 
Q 22.953125 6.109375 30.078125 6.109375 
Q 37.203125 6.109375 41.296875 11.75 
Q 45.40625 17.390625 45.40625 27.296875 
Q 45.40625 37.203125 41.296875 42.84375 
Q 37.203125 48.484375 30.078125 48.484375 
Q 22.953125 48.484375 18.875 42.84375 
Q 14.796875 37.203125 14.796875 27.296875 
z
" id="DejaVuSans-64"/>
      <path d="M 45.40625 27.984375 
Q 45.40625 37.75 41.375 43.109375 
Q 37.359375 48.484375 30.078125 48.484375 
Q 22.859375 48.484375 18.828125 43.109375 
Q 14.796875 37.75 14.796875 27.984375 
Q 14.796875 18.265625 18.828125 12.890625 
Q 22.859375 7.515625 30.078125 7.515625 
Q 37.359375 7.515625 41.375 12.890625 
Q 45.40625 18.265625 45.40625 27.984375 
z
M 54.390625 6.78125 
Q 54.390625 -7.171875 48.1875 -13.984375 
Q 42 -20.796875 29.203125 -20.796875 
Q 24.46875 -20.796875 20.265625 -20.09375 
Q 16.0625 -19.390625 12.109375 -17.921875 
L 12.109375 -9.1875 
Q 16.0625 -11.328125 19.921875 -12.34375 
Q 23.78125 -13.375 27.78125 -13.375 
Q 36.625 -13.375 41.015625 -8.765625 
Q 45.40625 -4.15625 45.40625 5.171875 
L 45.40625 9.625 
Q 42.625 4.78125 38.28125 2.390625 
Q 33.9375 0 27.875 0 
Q 17.828125 0 11.671875 7.65625 
Q 5.515625 15.328125 5.515625 27.984375 
Q 5.515625 40.671875 11.671875 48.328125 
Q 17.828125 56 27.875 56 
Q 33.9375 56 38.28125 53.609375 
Q 42.625 51.21875 45.40625 46.390625 
L 45.40625 54.6875 
L 54.390625 54.6875 
z
" id="DejaVuSans-67"/>
      <path d="M 41.109375 46.296875 
Q 39.59375 47.171875 37.8125 47.578125 
Q 36.03125 48 33.890625 48 
Q 26.265625 48 22.1875 43.046875 
Q 18.109375 38.09375 18.109375 28.8125 
L 18.109375 0 
L 9.078125 0 
L 9.078125 54.6875 
L 18.109375 54.6875 
L 18.109375 46.1875 
Q 20.953125 51.171875 25.484375 53.578125 
Q 30.03125 56 36.53125 56 
Q 37.453125 56 38.578125 55.875 
Q 39.703125 55.765625 41.0625 55.515625 
z
" id="DejaVuSans-72"/>
     </defs>
     <g transform="translate(94.305469 248.776563)scale(0.1 -0.1)">
      <use xlink:href="#DejaVuSans-63"/>
      <use x="54.980469" xlink:href="#DejaVuSans-79"/>
      <use x="114.160156" xlink:href="#DejaVuSans-63"/>
      <use x="169.140625" xlink:href="#DejaVuSans-6c"/>
      <use x="196.923828" xlink:href="#DejaVuSans-65"/>
      <use x="258.447266" xlink:href="#DejaVuSans-73"/>
      <use x="310.546875" xlink:href="#DejaVuSans-2f"/>
      <use x="344.238281" xlink:href="#DejaVuSans-64"/>
      <use x="407.714844" xlink:href="#DejaVuSans-65"/>
      <use x="469.238281" xlink:href="#DejaVuSans-67"/>
      <use x="532.714844" xlink:href="#DejaVuSans-72"/>
      <use x="573.796875" xlink:href="#DejaVuSans-65"/>
      <use x="635.320312" xlink:href="#DejaVuSans-65"/>
     </g>
    </g>
   </g>
   <g id="matplotlib.axis_2">
    <g id="text_8">
     <!-- Amplitude -->
     <defs>
      <path d="M 34.1875 63.1875 
L 20.796875 26.90625 
L 47.609375 26.90625 
z
M 28.609375 72.90625 
L 39.796875 72.90625 
L 67.578125 0 
L 57.328125 0 
L 50.6875 18.703125 
L 17.828125 18.703125 
L 11.1875 0 
L 0.78125 0 
z
" id="DejaVuSans-41"/>
      <path d="M 52 44.1875 
Q 55.375 50.25 60.0625 53.125 
Q 64.75 56 71.09375 56 
Q 79.640625 56 84.28125 50.015625 
Q 88.921875 44.046875 88.921875 33.015625 
L 88.921875 0 
L 79.890625 0 
L 79.890625 32.71875 
Q 79.890625 40.578125 77.09375 44.375 
Q 74.3125 48.1875 68.609375 48.1875 
Q 61.625 48.1875 57.5625 43.546875 
Q 53.515625 38.921875 53.515625 30.90625 
L 53.515625 0 
L 44.484375 0 
L 44.484375 32.71875 
Q 44.484375 40.625 41.703125 44.40625 
Q 38.921875 48.1875 33.109375 48.1875 
Q 26.21875 48.1875 22.15625 43.53125 
Q 18.109375 38.875 18.109375 30.90625 
L 18.109375 0 
L 9.078125 0 
L 9.078125 54.6875 
L 18.109375 54.6875 
L 18.109375 46.1875 
Q 21.1875 51.21875 25.484375 53.609375 
Q 29.78125 56 35.6875 56 
Q 41.65625 56 45.828125 52.96875 
Q 50 49.953125 52 44.1875 
z
" id="DejaVuSans-6d"/>
      <path d="M 18.109375 8.203125 
L 18.109375 -20.796875 
L 9.078125 -20.796875 
L 9.078125 54.6875 
L 18.109375 54.6875 
L 18.109375 46.390625 
Q 20.953125 51.265625 25.265625 53.625 
Q 29.59375 56 35.59375 56 
Q 45.5625 56 51.78125 48.09375 
Q 58.015625 40.1875 58.015625 27.296875 
Q 58.015625 14.40625 51.78125 6.484375 
Q 45.5625 -1.421875 35.59375 -1.421875 
Q 29.59375 -1.421875 25.265625 0.953125 
Q 20.953125 3.328125 18.109375 8.203125 
z
M 48.6875 27.296875 
Q 48.6875 37.203125 44.609375 42.84375 
Q 40.53125 48.484375 33.40625 48.484375 
Q 26.265625 48.484375 22.1875 42.84375 
Q 18.109375 37.203125 18.109375 27.296875 
Q 18.109375 17.390625 22.1875 11.75 
Q 26.265625 6.109375 33.40625 6.109375 
Q 40.53125 6.109375 44.609375 11.75 
Q 48.6875 17.390625 48.6875 27.296875 
z
" id="DejaVuSans-70"/>
      <path d="M 9.421875 54.6875 
L 18.40625 54.6875 
L 18.40625 0 
L 9.421875 0 
z
M 9.421875 75.984375 
L 18.40625 75.984375 
L 18.40625 64.59375 
L 9.421875 64.59375 
z
" id="DejaVuSans-69"/>
      <path d="M 18.3125 70.21875 
L 18.3125 54.6875 
L 36.8125 54.6875 
L 36.8125 47.703125 
L 18.3125 47.703125 
L 18.3125 18.015625 
Q 18.3125 11.328125 20.140625 9.421875 
Q 21.96875 7.515625 27.59375 7.515625 
L 36.8125 7.515625 
L 36.8125 0 
L 27.59375 0 
Q 17.1875 0 13.234375 3.875 
Q 9.28125 7.765625 9.28125 18.015625 
L 9.28125 47.703125 
L 2.6875 47.703125 
L 2.6875 54.6875 
L 9.28125 54.6875 
L 9.28125 70.21875 
z
" id="DejaVuSans-74"/>
      <path d="M 8.5 21.578125 
L 8.5 54.6875 
L 17.484375 54.6875 
L 17.484375 21.921875 
Q 17.484375 14.15625 20.5 10.265625 
Q 23.53125 6.390625 29.59375 6.390625 
Q 36.859375 6.390625 41.078125 11.03125 
Q 45.3125 15.671875 45.3125 23.6875 
L 45.3125 54.6875 
L 54.296875 54.6875 
L 54.296875 0 
L 45.3125 0 
L 45.3125 8.40625 
Q 42.046875 3.421875 37.71875 1 
Q 33.40625 -1.421875 27.6875 -1.421875 
Q 18.265625 -1.421875 13.375 4.4375 
Q 8.5 10.296875 8.5 21.578125 
z
M 31.109375 56 
z
" id="DejaVuSans-75"/>
     </defs>
     <g transform="translate(25.420312 150.992656)rotate(-90)scale(0.1 -0.1)">
      <use xlink:href="#DejaVuSans-41"/>
      <use x="68.408203" xlink:href="#DejaVuSans-6d"/>
      <use x="165.820312" xlink:href="#DejaVuSans-70"/>
      <use x="229.296875" xlink:href="#DejaVuSans-6c"/>
      <use x="257.080078" xlink:href="#DejaVuSans-69"/>
      <use x="284.863281" xlink:href="#DejaVuSans-74"/>
      <use x="324.072266" xlink:href="#DejaVuSans-75"/>
      <use x="387.451172" xlink:href="#DejaVuSans-64"/>
      <use x="450.927734" xlink:href="#DejaVuSans-65"/>
     </g>
    </g>
   </g>
   <g id="line2d_7">
    <path clip-path="url(#pea474409a1)" d="M 31.5 209.870545 
L 49.881176 152.193805 
L 68.262353 144.518159 
L 86.643529 153.29646 
L 105.024706 179.162444 
L 123.405882 198.343005 
L 141.787059 202.108199 
L 160.168235 194.401126 
L 178.549412 207.770233 
L 196.930588 209.691748 
L 215.311765 203.360333 
L 233.692941 203.148822 
L 252.074118 207.33513 
L 253 207.350671 
" style="fill:none;stroke:#000000;stroke-linecap:square;stroke-width:1.5;"/>
    <defs>
     <path d="M -3 3 
L 3 -3 
M -3 -3 
L 3 3 
" id="m6d935679c8" style="stroke:#000000;"/>
    </defs>
    <g clip-path="url(#pea474409a1)">
     <use style="stroke:#000000;" x="31.5" xlink:href="#m6d935679c8" y="209.870545"/>
     <use style="stroke:#000000;" x="49.881176" xlink:href="#m6d935679c8" y="152.193805"/>
     <use style="stroke:#000000;" x="68.262353" xlink:href="#m6d935679c8" y="144.518159"/>
     <use style="stroke:#000000;" x="86.643529" xlink:href="#m6d935679c8" y="153.29646"/>
     <use style="stroke:#000000;" x="105.024706" xlink:href="#m6d935679c8" y="179.162444"/>
     <use style="stroke:#000000;" x="123.405882" xlink:href="#m6d935679c8" y="198.343005"/>
     <use style="stroke:#000000;" x="141.787059" xlink:href="#m6d935679c8" y="202.108199"/>
     <use style="stroke:#000000;" x="160.168235" xlink:href="#m6d935679c8" y="194.401126"/>
     <use style="stroke:#000000;" x="178.549412" xlink:href="#m6d935679c8" y="207.770233"/>
     <use style="stroke:#000000;" x="196.930588" xlink:href="#m6d935679c8" y="209.691748"/>
     <use style="stroke:#000000;" x="215.311765" xlink:href="#m6d935679c8" y="203.360333"/>
     <use style="stroke:#000000;" x="233.692941" xlink:href="#m6d935679c8" y="203.148822"/>
     <use style="stroke:#000000;" x="252.074118" xlink:href="#m6d935679c8" y="207.33513"/>
     <use style="stroke:#000000;" x="270.455294" xlink:href="#m6d935679c8" y="207.643664"/>
     <use style="stroke:#000000;" x="288.836471" xlink:href="#m6d935679c8" y="208.872154"/>
     <use style="stroke:#000000;" x="307.217647" xlink:href="#m6d935679c8" y="211.425195"/>
     <use style="stroke:#000000;" x="325.598824" xlink:href="#m6d935679c8" y="211.693245"/>
     <use style="stroke:#000000;" x="343.98" xlink:href="#m6d935679c8" y="209.111489"/>
     <use style="stroke:#000000;" x="362.361176" xlink:href="#m6d935679c8" y="209.300593"/>
     <use style="stroke:#000000;" x="380.742353" xlink:href="#m6d935679c8" y="209.494808"/>
     <use style="stroke:#000000;" x="399.123529" xlink:href="#m6d935679c8" y="209.486009"/>
     <use style="stroke:#000000;" x="417.504706" xlink:href="#m6d935679c8" y="210.06252"/>
     <use style="stroke:#000000;" x="435.885882" xlink:href="#m6d935679c8" y="210.167578"/>
     <use style="stroke:#000000;" x="454.267059" xlink:href="#m6d935679c8" y="210.930627"/>
    </g>
   </g>
   <g id="line2d_8">
    <path clip-path="url(#pea474409a1)" d="M 31.5 211.851818 
L 49.881176 152.668942 
L 68.262353 154.967581 
L 86.643529 171.07497 
L 105.024706 189.429523 
L 123.405882 198.521272 
L 141.787059 193.539991 
L 160.168235 198.282771 
L 178.549412 194.884102 
L 196.930588 200.533446 
L 215.311765 200.231962 
L 233.692941 208.284421 
L 252.074118 211.183627 
L 253 211.194879 
" style="fill:none;stroke:#000000;stroke-linecap:square;stroke-width:1.5;"/>
    <defs>
     <path d="M 0 -3 
L -0.673542 -0.927051 
L -2.85317 -0.927051 
L -1.089814 0.354102 
L -1.763356 2.427051 
L -0 1.145898 
L 1.763356 2.427051 
L 1.089814 0.354102 
L 2.85317 -0.927051 
L 0.673542 -0.927051 
z
" id="mdf7c7ccb04" style="stroke:#000000;stroke-linejoin:bevel;"/>
    </defs>
    <g clip-path="url(#pea474409a1)">
     <use style="stroke:#000000;stroke-linejoin:bevel;" x="31.5" xlink:href="#mdf7c7ccb04" y="211.851818"/>
     <use style="stroke:#000000;stroke-linejoin:bevel;" x="49.881176" xlink:href="#mdf7c7ccb04" y="152.668942"/>
     <use style="stroke:#000000;stroke-linejoin:bevel;" x="68.262353" xlink:href="#mdf7c7ccb04" y="154.967581"/>
     <use style="stroke:#000000;stroke-linejoin:bevel;" x="86.643529" xlink:href="#mdf7c7ccb04" y="171.07497"/>
     <use style="stroke:#000000;stroke-linejoin:bevel;" x="105.024706" xlink:href="#mdf7c7ccb04" y="189.429523"/>
     <use style="stroke:#000000;stroke-linejoin:bevel;" x="123.405882" xlink:href="#mdf7c7ccb04" y="198.521272"/>
     <use style="stroke:#000000;stroke-linejoin:bevel;" x="141.787059" xlink:href="#mdf7c7ccb04" y="193.539991"/>
     <use style="stroke:#000000;stroke-linejoin:bevel;" x="160.168235" xlink:href="#mdf7c7ccb04" y="198.282771"/>
     <use style="stroke:#000000;stroke-linejoin:bevel;" x="178.549412" xlink:href="#mdf7c7ccb04" y="194.884102"/>
     <use style="stroke:#000000;stroke-linejoin:bevel;" x="196.930588" xlink:href="#mdf7c7ccb04" y="200.533446"/>
     <use style="stroke:#000000;stroke-linejoin:bevel;" x="215.311765" xlink:href="#mdf7c7ccb04" y="200.231962"/>
     <use style="stroke:#000000;stroke-linejoin:bevel;" x="233.692941" xlink:href="#mdf7c7ccb04" y="208.284421"/>
     <use style="stroke:#000000;stroke-linejoin:bevel;" x="252.074118" xlink:href="#mdf7c7ccb04" y="211.183627"/>
     <use style="stroke:#000000;stroke-linejoin:bevel;" x="270.455294" xlink:href="#mdf7c7ccb04" y="211.406998"/>
     <use style="stroke:#000000;stroke-linejoin:bevel;" x="288.836471" xlink:href="#mdf7c7ccb04" y="210.379325"/>
     <use style="stroke:#000000;stroke-linejoin:bevel;" x="307.217647" xlink:href="#mdf7c7ccb04" y="209.249787"/>
     <use style="stroke:#000000;stroke-linejoin:bevel;" x="325.598824" xlink:href="#mdf7c7ccb04" y="210.339407"/>
     <use style="stroke:#000000;stroke-linejoin:bevel;" x="343.98" xlink:href="#mdf7c7ccb04" y="211.121653"/>
     <use style="stroke:#000000;stroke-linejoin:bevel;" x="362.361176" xlink:href="#mdf7c7ccb04" y="211.095003"/>
     <use style="stroke:#000000;stroke-linejoin:bevel;" x="380.742353" xlink:href="#mdf7c7ccb04" y="210.653071"/>
     <use style="stroke:#000000;stroke-linejoin:bevel;" x="399.123529" xlink:href="#mdf7c7ccb04" y="210.800793"/>
     <use style="stroke:#000000;stroke-linejoin:bevel;" x="417.504706" xlink:href="#mdf7c7ccb04" y="210.554319"/>
     <use style="stroke:#000000;stroke-linejoin:bevel;" x="435.885882" xlink:href="#mdf7c7ccb04" y="211.318916"/>
     <use style="stroke:#000000;stroke-linejoin:bevel;" x="454.267059" xlink:href="#mdf7c7ccb04" y="211.099796"/>
    </g>
   </g>
   <g id="line2d_9">
    <path clip-path="url(#pea474409a1)" d="M 31.5 211.730022 
L 49.881176 159.138737 
L 68.262353 120.46229 
L 86.643529 115.726694 
L 105.024706 130.447259 
L 123.405882 153.625721 
L 141.787059 169.922749 
L 160.168235 203.853291 
L 178.549412 178.455954 
L 196.930588 197.765482 
L 215.311765 197.090985 
L 233.692941 194.391328 
L 252.074118 203.148973 
L 253 203.307725 
" style="fill:none;stroke:#000000;stroke-linecap:square;stroke-width:1.5;"/>
    <defs>
     <path d="M 0 1.5 
C 0.397805 1.5 0.77937 1.341951 1.06066 1.06066 
C 1.341951 0.77937 1.5 0.397805 1.5 0 
C 1.5 -0.397805 1.341951 -0.77937 1.06066 -1.06066 
C 0.77937 -1.341951 0.397805 -1.5 0 -1.5 
C -0.397805 -1.5 -0.77937 -1.341951 -1.06066 -1.06066 
C -1.341951 -0.77937 -1.5 -0.397805 -1.5 0 
C -1.5 0.397805 -1.341951 0.77937 -1.06066 1.06066 
C -0.77937 1.341951 -0.397805 1.5 0 1.5 
z
" id="mc08a73c31a" style="stroke:#000000;"/>
    </defs>
    <g clip-path="url(#pea474409a1)">
     <use style="stroke:#000000;" x="31.5" xlink:href="#mc08a73c31a" y="211.730022"/>
     <use style="stroke:#000000;" x="49.881176" xlink:href="#mc08a73c31a" y="159.138737"/>
     <use style="stroke:#000000;" x="68.262353" xlink:href="#mc08a73c31a" y="120.46229"/>
     <use style="stroke:#000000;" x="86.643529" xlink:href="#mc08a73c31a" y="115.726694"/>
     <use style="stroke:#000000;" x="105.024706" xlink:href="#mc08a73c31a" y="130.447259"/>
     <use style="stroke:#000000;" x="123.405882" xlink:href="#mc08a73c31a" y="153.625721"/>
     <use style="stroke:#000000;" x="141.787059" xlink:href="#mc08a73c31a" y="169.922749"/>
     <use style="stroke:#000000;" x="160.168235" xlink:href="#mc08a73c31a" y="203.853291"/>
     <use style="stroke:#000000;" x="178.549412" xlink:href="#mc08a73c31a" y="178.455954"/>
     <use style="stroke:#000000;" x="196.930588" xlink:href="#mc08a73c31a" y="197.765482"/>
     <use style="stroke:#000000;" x="215.311765" xlink:href="#mc08a73c31a" y="197.090985"/>
     <use style="stroke:#000000;" x="233.692941" xlink:href="#mc08a73c31a" y="194.391328"/>
     <use style="stroke:#000000;" x="252.074118" xlink:href="#mc08a73c31a" y="203.148973"/>
     <use style="stroke:#000000;" x="270.455294" xlink:href="#mc08a73c31a" y="206.300623"/>
     <use style="stroke:#000000;" x="288.836471" xlink:href="#mc08a73c31a" y="206.00667"/>
     <use style="stroke:#000000;" x="307.217647" xlink:href="#mc08a73c31a" y="205.360111"/>
     <use style="stroke:#000000;" x="325.598824" xlink:href="#mc08a73c31a" y="205.523265"/>
     <use style="stroke:#000000;" x="343.98" xlink:href="#mc08a73c31a" y="210.898936"/>
     <use style="stroke:#000000;" x="362.361176" xlink:href="#mc08a73c31a" y="208.335806"/>
     <use style="stroke:#000000;" x="380.742353" xlink:href="#mc08a73c31a" y="207.414052"/>
     <use style="stroke:#000000;" x="399.123529" xlink:href="#mc08a73c31a" y="209.319598"/>
     <use style="stroke:#000000;" x="417.504706" xlink:href="#mc08a73c31a" y="209.906007"/>
     <use style="stroke:#000000;" x="435.885882" xlink:href="#mc08a73c31a" y="210.91855"/>
     <use style="stroke:#000000;" x="454.267059" xlink:href="#mc08a73c31a" y="208.765339"/>
    </g>
   </g>
   <g id="line2d_10">
    <path clip-path="url(#pea474409a1)" d="M 31.5 211.454823 
L 49.881176 156.266984 
L 68.262353 122.176525 
L 86.643529 109.667105 
L 105.024706 114.328662 
L 123.405882 160.554695 
L 141.787059 171.263028 
L 160.168235 203.919787 
L 178.549412 206.77107 
L 196.930588 200.646393 
L 215.311765 202.334259 
L 233.692941 200.089886 
L 252.074118 202.528223 
L 253 202.644953 
" style="fill:none;stroke:#000000;stroke-dasharray:1.5,2.475;stroke-dashoffset:0;stroke-width:1.5;"/>
   </g>
   <g id="line2d_11">
    <path clip-path="url(#pea474409a1)" d="M 31.5 211.203247 
L 49.881176 134.288437 
L 68.262353 72.904516 
L 86.643529 38.888182 
L 105.024706 72.579471 
L 123.405882 95.606806 
L 141.787059 167.533961 
L 160.168235 184.40821 
L 178.549412 169.75795 
L 196.930588 174.915249 
L 215.311765 195.516796 
L 233.692941 189.819426 
L 252.074118 185.32992 
L 253 185.44079 
" style="fill:none;stroke:#000000;stroke-dasharray:5.55,2.4;stroke-dashoffset:0;stroke-width:1.5;"/>
   </g>
   <g id="patch_3">
    <path d="M 31.5 220.5 
L 31.5 30.24 
" style="fill:none;stroke:#000000;stroke-linecap:square;stroke-linejoin:miter;stroke-width:0.8;"/>
   </g>
   <g id="patch_4">
    <path d="M 226.8 220.5 
L 226.8 30.24 
" style="fill:none;stroke:#000000;stroke-linecap:square;stroke-linejoin:miter;stroke-width:0.8;"/>
   </g>
   <g id="patch_5">
    <path d="M 31.5 220.5 
L 226.8 220.5 
" style="fill:none;stroke:#000000;stroke-linecap:square;stroke-linejoin:miter;stroke-width:0.8;"/>
   </g>
   <g id="patch_6">
    <path d="M 31.5 30.24 
L 226.8 30.24 
" style="fill:none;stroke:#000000;stroke-linecap:square;stroke-linejoin:miter;stroke-width:0.8;"/>
   </g>
   <g id="legend_1">
    <g id="patch_7">
     <path d="M 177.9125 111.630625 
L 219.8 111.630625 
Q 221.8 111.630625 221.8 109.630625 
L 221.8 37.24 
Q 221.8 35.24 219.8 35.24 
L 177.9125 35.24 
Q 175.9125 35.24 175.9125 37.24 
L 175.9125 109.630625 
Q 175.9125 111.630625 177.9125 111.630625 
z
" style="fill:#ffffff;opacity:0.8;stroke:#cccccc;stroke-linejoin:miter;"/>
    </g>
    <g id="line2d_12">
     <path d="M 179.9125 43.338437 
L 199.9125 43.338437 
" style="fill:none;stroke:#000000;stroke-linecap:square;stroke-width:1.5;"/>
    </g>
    <g id="line2d_13">
     <g>
      <use style="stroke:#000000;" x="189.9125" xlink:href="#m6d935679c8" y="43.338437"/>
     </g>
    </g>
    <g id="text_9">
     <!-- A -->
     <g transform="translate(207.9125 46.838437)scale(0.1 -0.1)">
      <use xlink:href="#DejaVuSans-41"/>
     </g>
    </g>
    <g id="line2d_14">
     <path d="M 179.9125 58.016562 
L 199.9125 58.016562 
" style="fill:none;stroke:#000000;stroke-linecap:square;stroke-width:1.5;"/>
    </g>
    <g id="line2d_15">
     <g>
      <use style="stroke:#000000;stroke-linejoin:bevel;" x="189.9125" xlink:href="#mdf7c7ccb04" y="58.016562"/>
     </g>
    </g>
    <g id="text_10">
     <!-- C -->
     <defs>
      <path d="M 64.40625 67.28125 
L 64.40625 56.890625 
Q 59.421875 61.53125 53.78125 63.8125 
Q 48.140625 66.109375 41.796875 66.109375 
Q 29.296875 66.109375 22.65625 58.46875 
Q 16.015625 50.828125 16.015625 36.375 
Q 16.015625 21.96875 22.65625 14.328125 
Q 29.296875 6.6875 41.796875 6.6875 
Q 48.140625 6.6875 53.78125 8.984375 
Q 59.421875 11.28125 64.40625 15.921875 
L 64.40625 5.609375 
Q 59.234375 2.09375 53.4375 0.328125 
Q 47.65625 -1.421875 41.21875 -1.421875 
Q 24.65625 -1.421875 15.125 8.703125 
Q 5.609375 18.84375 5.609375 36.375 
Q 5.609375 53.953125 15.125 64.078125 
Q 24.65625 74.21875 41.21875 74.21875 
Q 47.75 74.21875 53.53125 72.484375 
Q 59.328125 70.75 64.40625 67.28125 
z
" id="DejaVuSans-43"/>
     </defs>
     <g transform="translate(207.9125 61.516562)scale(0.1 -0.1)">
      <use xlink:href="#DejaVuSans-43"/>
     </g>
    </g>
    <g id="line2d_16">
     <path d="M 179.9125 72.694687 
L 199.9125 72.694687 
" style="fill:none;stroke:#000000;stroke-linecap:square;stroke-width:1.5;"/>
    </g>
    <g id="line2d_17">
     <g>
      <use style="stroke:#000000;" x="189.9125" xlink:href="#mc08a73c31a" y="72.694687"/>
     </g>
    </g>
    <g id="text_11">
     <!-- H -->
     <defs>
      <path d="M 9.8125 72.90625 
L 19.671875 72.90625 
L 19.671875 43.015625 
L 55.515625 43.015625 
L 55.515625 72.90625 
L 65.375 72.90625 
L 65.375 0 
L 55.515625 0 
L 55.515625 34.71875 
L 19.671875 34.71875 
L 19.671875 0 
L 9.8125 0 
z
" id="DejaVuSans-48"/>
     </defs>
     <g transform="translate(207.9125 76.194687)scale(0.1 -0.1)">
      <use xlink:href="#DejaVuSans-48"/>
     </g>
    </g>
    <g id="line2d_18">
     <path d="M 179.9125 87.372813 
L 199.9125 87.372813 
" style="fill:none;stroke:#000000;stroke-dasharray:1.5,2.475;stroke-dashoffset:0;stroke-width:1.5;"/>
    </g>
    <g id="line2d_19"/>
    <g id="text_12">
     <!-- T -->
     <defs>
      <path d="M -0.296875 72.90625 
L 61.375 72.90625 
L 61.375 64.59375 
L 35.5 64.59375 
L 35.5 0 
L 25.59375 0 
L 25.59375 64.59375 
L -0.296875 64.59375 
z
" id="DejaVuSans-54"/>
     </defs>
     <g transform="translate(207.9125 90.872813)scale(0.1 -0.1)">
      <use xlink:href="#DejaVuSans-54"/>
     </g>
    </g>
    <g id="line2d_20">
     <path d="M 179.9125 102.050938 
L 199.9125 102.050938 
" style="fill:none;stroke:#000000;stroke-dasharray:5.55,2.4;stroke-dashoffset:0;stroke-width:1.5;"/>
    </g>
    <g id="line2d_21"/>
    <g id="text_13">
     <!-- W -->
     <defs>
      <path d="M 3.328125 72.90625 
L 13.28125 72.90625 
L 28.609375 11.28125 
L 43.890625 72.90625 
L 54.984375 72.90625 
L 70.3125 11.28125 
L 85.59375 72.90625 
L 95.609375 72.90625 
L 77.296875 0 
L 64.890625 0 
L 49.515625 63.28125 
L 33.984375 0 
L 21.578125 0 
z
" id="DejaVuSans-57"/>
     </defs>
     <g transform="translate(207.9125 105.550938)scale(0.1 -0.1)">
      <use xlink:href="#DejaVuSans-57"/>
     </g>
    </g>
   </g>
  </g>
 </g>
 <defs>
  <clipPath id="pea474409a1">
   <rect height="190.26" width="195.3" x="31.5" y="30.24"/>
  </clipPath>
 </defs>
</svg>
