<?xml version="1.0" encoding="utf-8" standalone="no"?>
<!DOCTYPE svg PUBLIC "-//W3C//DTD SVG 1.1//EN"
  "http://www.w3.org/Graphics/SVG/1.1/DTD/svg11.dtd">
<!-- Created with matplotlib (http://matplotlib.org/) -->
<svg height="504pt" version="1.1" viewBox="0 0 252 504" width="252pt" xmlns="http://www.w3.org/2000/svg" xmlns:xlink="http://www.w3.org/1999/xlink">
 <defs>
  <style type="text/css">
*{stroke-linecap:butt;stroke-linejoin:round;}
  </style>
 </defs>
 <g id="figure_1">
  <g id="patch_1">
   <path d="M 0 504 
L 252 504 
L 252 0 
L 0 0 
z
" style="fill:#ffffff;"/>
  </g>
  <g id="axes_1">
   <g id="patch_2">
    <path d="M 31.5 183.228387 
L 226.8 183.228387 
L 226.8 60.48 
L 31.5 60.48 
z
" style="fill:#ffffff;"/>
   </g>
   <g id="matplotlib.axis_1">
    <g id="xtick_1"/>
    <g id="xtick_2"/>
    <g id="xtick_3"/>
    <g id="xtick_4"/>
    <g id="xtick_5"/>
    <g id="xtick_6"/>
    <g id="xtick_7"/>
    <g id="xtick_8"/>
    <g id="xtick_9"/>
    <g id="xtick_10"/>
    <g id="xtick_11"/>
   </g>
   <g id="matplotlib.axis_2">
    <g id="ytick_1">
     <g id="line2d_1">
      <defs>
       <path d="M 0 0 
L -3.5 0 
" id="m0b146a41a0" style="stroke:#000000;stroke-width:0.8;"/>
      </defs>
      <g>
       <use style="stroke:#000000;stroke-width:0.8;" x="31.5" xlink:href="#m0b146a41a0" y="163.451003"/>
      </g>
     </g>
     <g id="text_1">
      <!-- −0.2 -->
      <defs>
       <path d="M 10.59375 35.5 
L 73.1875 35.5 
L 73.1875 27.203125 
L 10.59375 27.203125 
z
" id="DejaVuSans-2212"/>
       <path d="M 31.78125 66.40625 
Q 24.171875 66.40625 20.328125 58.90625 
Q 16.5 51.421875 16.5 36.375 
Q 16.5 21.390625 20.328125 13.890625 
Q 24.171875 6.390625 31.78125 6.390625 
Q 39.453125 6.390625 43.28125 13.890625 
Q 47.125 21.390625 47.125 36.375 
Q 47.125 51.421875 43.28125 58.90625 
Q 39.453125 66.40625 31.78125 66.40625 
z
M 31.78125 74.21875 
Q 44.046875 74.21875 50.515625 64.515625 
Q 56.984375 54.828125 56.984375 36.375 
Q 56.984375 17.96875 50.515625 8.265625 
Q 44.046875 -1.421875 31.78125 -1.421875 
Q 19.53125 -1.421875 13.0625 8.265625 
Q 6.59375 17.96875 6.59375 36.375 
Q 6.59375 54.828125 13.0625 64.515625 
Q 19.53125 74.21875 31.78125 74.21875 
z
" id="DejaVuSans-30"/>
       <path d="M 10.6875 12.40625 
L 21 12.40625 
L 21 0 
L 10.6875 0 
z
" id="DejaVuSans-2e"/>
       <path d="M 19.1875 8.296875 
L 53.609375 8.296875 
L 53.609375 0 
L 7.328125 0 
L 7.328125 8.296875 
Q 12.9375 14.109375 22.625 23.890625 
Q 32.328125 33.6875 34.8125 36.53125 
Q 39.546875 41.84375 41.421875 45.53125 
Q 43.3125 49.21875 43.3125 52.78125 
Q 43.3125 58.59375 39.234375 62.25 
Q 35.15625 65.921875 28.609375 65.921875 
Q 23.96875 65.921875 18.8125 64.3125 
Q 13.671875 62.703125 7.8125 59.421875 
L 7.8125 69.390625 
Q 13.765625 71.78125 18.9375 73 
Q 24.125 74.21875 28.421875 74.21875 
Q 39.75 74.21875 46.484375 68.546875 
Q 53.21875 62.890625 53.21875 53.421875 
Q 53.21875 48.921875 51.53125 44.890625 
Q 49.859375 40.875 45.40625 35.40625 
Q 44.1875 33.984375 37.640625 27.21875 
Q 31.109375 20.453125 19.1875 8.296875 
z
" id="DejaVuSans-32"/>
      </defs>
      <g transform="translate(0.217187 167.250222)scale(0.1 -0.1)">
       <use xlink:href="#DejaVuSans-2212"/>
       <use x="83.789062" xlink:href="#DejaVuSans-30"/>
       <use x="147.412109" xlink:href="#DejaVuSans-2e"/>
       <use x="179.199219" xlink:href="#DejaVuSans-32"/>
      </g>
     </g>
    </g>
    <g id="ytick_2">
     <g id="line2d_2">
      <g>
       <use style="stroke:#000000;stroke-width:0.8;" x="31.5" xlink:href="#m0b146a41a0" y="138.209656"/>
      </g>
     </g>
     <g id="text_2">
      <!-- −0.1 -->
      <defs>
       <path d="M 12.40625 8.296875 
L 28.515625 8.296875 
L 28.515625 63.921875 
L 10.984375 60.40625 
L 10.984375 69.390625 
L 28.421875 72.90625 
L 38.28125 72.90625 
L 38.28125 8.296875 
L 54.390625 8.296875 
L 54.390625 0 
L 12.40625 0 
z
" id="DejaVuSans-31"/>
      </defs>
      <g transform="translate(0.217187 142.008874)scale(0.1 -0.1)">
       <use xlink:href="#DejaVuSans-2212"/>
       <use x="83.789062" xlink:href="#DejaVuSans-30"/>
       <use x="147.412109" xlink:href="#DejaVuSans-2e"/>
       <use x="179.199219" xlink:href="#DejaVuSans-31"/>
      </g>
     </g>
    </g>
    <g id="ytick_3">
     <g id="line2d_3">
      <g>
       <use style="stroke:#000000;stroke-width:0.8;" x="31.5" xlink:href="#m0b146a41a0" y="112.968308"/>
      </g>
     </g>
     <g id="text_3">
      <!-- 0.0 -->
      <g transform="translate(8.596875 116.767527)scale(0.1 -0.1)">
       <use xlink:href="#DejaVuSans-30"/>
       <use x="63.623047" xlink:href="#DejaVuSans-2e"/>
       <use x="95.410156" xlink:href="#DejaVuSans-30"/>
      </g>
     </g>
    </g>
    <g id="ytick_4">
     <g id="line2d_4">
      <g>
       <use style="stroke:#000000;stroke-width:0.8;" x="31.5" xlink:href="#m0b146a41a0" y="87.72696"/>
      </g>
     </g>
     <g id="text_4">
      <!-- 0.1 -->
      <g transform="translate(8.596875 91.526179)scale(0.1 -0.1)">
       <use xlink:href="#DejaVuSans-30"/>
       <use x="63.623047" xlink:href="#DejaVuSans-2e"/>
       <use x="95.410156" xlink:href="#DejaVuSans-31"/>
      </g>
     </g>
    </g>
    <g id="ytick_5">
     <g id="line2d_5">
      <g>
       <use style="stroke:#000000;stroke-width:0.8;" x="31.5" xlink:href="#m0b146a41a0" y="62.485612"/>
      </g>
     </g>
     <g id="text_5">
      <!-- 0.2 -->
      <g transform="translate(8.596875 66.284831)scale(0.1 -0.1)">
       <use xlink:href="#DejaVuSans-30"/>
       <use x="63.623047" xlink:href="#DejaVuSans-2e"/>
       <use x="95.410156" xlink:href="#DejaVuSans-32"/>
      </g>
     </g>
    </g>
    <g id="text_6">
     <!-- Contrast -->
     <defs>
      <path d="M 64.40625 67.28125 
L 64.40625 56.890625 
Q 59.421875 61.53125 53.78125 63.8125 
Q 48.140625 66.109375 41.796875 66.109375 
Q 29.296875 66.109375 22.65625 58.46875 
Q 16.015625 50.828125 16.015625 36.375 
Q 16.015625 21.96875 22.65625 14.328125 
Q 29.296875 6.6875 41.796875 6.6875 
Q 48.140625 6.6875 53.78125 8.984375 
Q 59.421875 11.28125 64.40625 15.921875 
L 64.40625 5.609375 
Q 59.234375 2.09375 53.4375 0.328125 
Q 47.65625 -1.421875 41.21875 -1.421875 
Q 24.65625 -1.421875 15.125 8.703125 
Q 5.609375 18.84375 5.609375 36.375 
Q 5.609375 53.953125 15.125 64.078125 
Q 24.65625 74.21875 41.21875 74.21875 
Q 47.75 74.21875 53.53125 72.484375 
Q 59.328125 70.75 64.40625 67.28125 
z
" id="DejaVuSans-43"/>
      <path d="M 30.609375 48.390625 
Q 23.390625 48.390625 19.1875 42.75 
Q 14.984375 37.109375 14.984375 27.296875 
Q 14.984375 17.484375 19.15625 11.84375 
Q 23.34375 6.203125 30.609375 6.203125 
Q 37.796875 6.203125 41.984375 11.859375 
Q 46.1875 17.53125 46.1875 27.296875 
Q 46.1875 37.015625 41.984375 42.703125 
Q 37.796875 48.390625 30.609375 48.390625 
z
M 30.609375 56 
Q 42.328125 56 49.015625 48.375 
Q 55.71875 40.765625 55.71875 27.296875 
Q 55.71875 13.875 49.015625 6.21875 
Q 42.328125 -1.421875 30.609375 -1.421875 
Q 18.84375 -1.421875 12.171875 6.21875 
Q 5.515625 13.875 5.515625 27.296875 
Q 5.515625 40.765625 12.171875 48.375 
Q 18.84375 56 30.609375 56 
z
" id="DejaVuSans-6f"/>
      <path d="M 54.890625 33.015625 
L 54.890625 0 
L 45.90625 0 
L 45.90625 32.71875 
Q 45.90625 40.484375 42.875 44.328125 
Q 39.84375 48.1875 33.796875 48.1875 
Q 26.515625 48.1875 22.3125 43.546875 
Q 18.109375 38.921875 18.109375 30.90625 
L 18.109375 0 
L 9.078125 0 
L 9.078125 54.6875 
L 18.109375 54.6875 
L 18.109375 46.1875 
Q 21.34375 51.125 25.703125 53.5625 
Q 30.078125 56 35.796875 56 
Q 45.21875 56 50.046875 50.171875 
Q 54.890625 44.34375 54.890625 33.015625 
z
" id="DejaVuSans-6e"/>
      <path d="M 18.3125 70.21875 
L 18.3125 54.6875 
L 36.8125 54.6875 
L 36.8125 47.703125 
L 18.3125 47.703125 
L 18.3125 18.015625 
Q 18.3125 11.328125 20.140625 9.421875 
Q 21.96875 7.515625 27.59375 7.515625 
L 36.8125 7.515625 
L 36.8125 0 
L 27.59375 0 
Q 17.1875 0 13.234375 3.875 
Q 9.28125 7.765625 9.28125 18.015625 
L 9.28125 47.703125 
L 2.6875 47.703125 
L 2.6875 54.6875 
L 9.28125 54.6875 
L 9.28125 70.21875 
z
" id="DejaVuSans-74"/>
      <path d="M 41.109375 46.296875 
Q 39.59375 47.171875 37.8125 47.578125 
Q 36.03125 48 33.890625 48 
Q 26.265625 48 22.1875 43.046875 
Q 18.109375 38.09375 18.109375 28.8125 
L 18.109375 0 
L 9.078125 0 
L 9.078125 54.6875 
L 18.109375 54.6875 
L 18.109375 46.1875 
Q 20.953125 51.171875 25.484375 53.578125 
Q 30.03125 56 36.53125 56 
Q 37.453125 56 38.578125 55.875 
Q 39.703125 55.765625 41.0625 55.515625 
z
" id="DejaVuSans-72"/>
      <path d="M 34.28125 27.484375 
Q 23.390625 27.484375 19.1875 25 
Q 14.984375 22.515625 14.984375 16.5 
Q 14.984375 11.71875 18.140625 8.90625 
Q 21.296875 6.109375 26.703125 6.109375 
Q 34.1875 6.109375 38.703125 11.40625 
Q 43.21875 16.703125 43.21875 25.484375 
L 43.21875 27.484375 
z
M 52.203125 31.203125 
L 52.203125 0 
L 43.21875 0 
L 43.21875 8.296875 
Q 40.140625 3.328125 35.546875 0.953125 
Q 30.953125 -1.421875 24.3125 -1.421875 
Q 15.921875 -1.421875 10.953125 3.296875 
Q 6 8.015625 6 15.921875 
Q 6 25.140625 12.171875 29.828125 
Q 18.359375 34.515625 30.609375 34.515625 
L 43.21875 34.515625 
L 43.21875 35.40625 
Q 43.21875 41.609375 39.140625 45 
Q 35.0625 48.390625 27.6875 48.390625 
Q 23 48.390625 18.546875 47.265625 
Q 14.109375 46.140625 10.015625 43.890625 
L 10.015625 52.203125 
Q 14.9375 54.109375 19.578125 55.046875 
Q 24.21875 56 28.609375 56 
Q 40.484375 56 46.34375 49.84375 
Q 52.203125 43.703125 52.203125 31.203125 
z
" id="DejaVuSans-61"/>
      <path d="M 44.28125 53.078125 
L 44.28125 44.578125 
Q 40.484375 46.53125 36.375 47.5 
Q 32.28125 48.484375 27.875 48.484375 
Q 21.1875 48.484375 17.84375 46.4375 
Q 14.5 44.390625 14.5 40.28125 
Q 14.5 37.15625 16.890625 35.375 
Q 19.28125 33.59375 26.515625 31.984375 
L 29.59375 31.296875 
Q 39.15625 29.25 43.1875 25.515625 
Q 47.21875 21.78125 47.21875 15.09375 
Q 47.21875 7.46875 41.1875 3.015625 
Q 35.15625 -1.421875 24.609375 -1.421875 
Q 20.21875 -1.421875 15.453125 -0.5625 
Q 10.6875 0.296875 5.421875 2 
L 5.421875 11.28125 
Q 10.40625 8.6875 15.234375 7.390625 
Q 20.0625 6.109375 24.8125 6.109375 
Q 31.15625 6.109375 34.5625 8.28125 
Q 37.984375 10.453125 37.984375 14.40625 
Q 37.984375 18.0625 35.515625 20.015625 
Q 33.0625 21.96875 24.703125 23.78125 
L 21.578125 24.515625 
Q 13.234375 26.265625 9.515625 29.90625 
Q 5.8125 33.546875 5.8125 39.890625 
Q 5.8125 47.609375 11.28125 51.796875 
Q 16.75 56 26.8125 56 
Q 31.78125 56 36.171875 55.265625 
Q 40.578125 54.546875 44.28125 53.078125 
z
" id="DejaVuSans-73"/>
     </defs>
     <g transform="translate(-5.8625 143.218256)rotate(-90)scale(0.1 -0.1)">
      <use xlink:href="#DejaVuSans-43"/>
      <use x="69.824219" xlink:href="#DejaVuSans-6f"/>
      <use x="131.005859" xlink:href="#DejaVuSans-6e"/>
      <use x="194.384766" xlink:href="#DejaVuSans-74"/>
      <use x="233.59375" xlink:href="#DejaVuSans-72"/>
      <use x="274.707031" xlink:href="#DejaVuSans-61"/>
      <use x="335.986328" xlink:href="#DejaVuSans-73"/>
      <use x="388.085938" xlink:href="#DejaVuSans-74"/>
     </g>
    </g>
   </g>
   <g id="line2d_6">
    <path clip-path="url(#pe96a4e0277)" d="M 226.8 177.648915 
L 226.032613 173.710293 
L 225.265226 165.991561 
L 224.881532 166.836429 
L 224.497839 165.881814 
L 223.730452 162.373761 
L 222.963065 160.561621 
L 222.195678 163.284159 
L 221.811984 163.556784 
L 221.428291 161.28161 
L 221.044597 160.097495 
L 220.660904 151.048032 
L 220.27721 152.288374 
L 219.893517 149.535666 
L 219.509823 149.401239 
L 218.742436 147.238608 
L 218.358743 145.725172 
L 217.975049 146.812035 
L 217.591356 149.034607 
L 216.823969 147.389594 
L 216.440275 147.092233 
L 216.056582 148.472841 
L 215.672888 142.468024 
L 214.905501 137.583964 
L 214.521807 136.858741 
L 214.138114 133.776442 
L 213.75442 136.832686 
L 213.370727 133.104511 
L 212.987033 134.08067 
L 212.60334 134.686252 
L 212.219646 132.919415 
L 211.835953 129.804597 
L 211.452259 128.441002 
L 211.068566 127.727031 
L 210.684872 131.235584 
L 210.301179 130.264408 
L 209.917485 129.675835 
L 209.533792 131.874215 
L 209.150098 127.252579 
L 208.766405 126.008374 
L 208.382711 129.779496 
L 207.999018 129.947671 
L 207.615324 125.545501 
L 207.231631 127.129262 
L 206.847937 125.681213 
L 206.464244 128.155891 
L 206.08055 129.385731 
L 205.696857 129.7537 
L 205.313163 131.347007 
L 204.92947 130.867075 
L 204.162083 127.454913 
L 203.778389 130.377477 
L 203.394695 130.021357 
L 202.627308 126.90759 
L 202.243615 125.676367 
L 201.859921 128.475457 
L 201.476228 125.509664 
L 201.092534 126.941291 
L 200.708841 124.289247 
L 200.325147 125.032273 
L 199.941454 128.308592 
L 199.55776 127.232488 
L 199.174067 128.347173 
L 198.790373 123.394199 
L 198.40668 126.38565 
L 198.022986 127.106791 
L 197.639293 125.850475 
L 196.871906 129.18744 
L 196.488212 129.23342 
L 196.104519 127.520479 
L 195.720825 126.497543 
L 194.953438 130.950202 
L 194.569745 131.478241 
L 194.186051 132.378861 
L 193.802358 132.464292 
L 193.418664 134.113928 
L 193.034971 133.427674 
L 192.651277 136.187673 
L 192.267583 135.949128 
L 191.500196 137.091031 
L 191.116503 137.670193 
L 190.732809 133.299274 
L 190.349116 130.233913 
L 189.965422 129.88935 
L 189.581729 129.391459 
L 189.198035 131.872747 
L 188.814342 132.931489 
L 188.430648 132.030597 
L 188.046955 132.679476 
L 187.663261 130.966903 
L 187.279568 129.78999 
L 186.895874 124.933161 
L 186.512181 124.804958 
L 186.128487 127.370523 
L 185.744794 123.149506 
L 185.3611 121.794654 
L 184.977407 121.984897 
L 184.593713 124.16629 
L 184.21002 124.399664 
L 183.826326 124.48685 
L 183.442633 126.728542 
L 183.058939 124.851832 
L 182.675246 123.808015 
L 182.291552 119.99997 
L 181.907859 121.138969 
L 181.524165 118.494013 
L 181.140472 117.776414 
L 180.756778 119.679646 
L 180.373084 118.138171 
L 179.989391 119.924235 
L 179.605697 117.408458 
L 178.83831 117.557304 
L 178.454617 118.718061 
L 177.68723 113.087101 
L 177.303536 113.474966 
L 176.919843 112.622328 
L 176.536149 112.946426 
L 176.152456 114.126497 
L 175.768762 116.557082 
L 175.385069 111.814563 
L 175.001375 110.134531 
L 174.617682 110.957457 
L 174.233988 113.454606 
L 173.850295 112.164191 
L 173.466601 114.610787 
L 173.082908 114.37357 
L 172.315521 112.729668 
L 171.931827 109.859427 
L 171.548134 110.626995 
L 171.16444 111.826812 
L 170.780747 109.154414 
L 170.397053 105.480667 
L 170.01336 103.245235 
L 169.629666 103.476257 
L 169.245972 103.122264 
L 168.862279 103.637415 
L 168.478585 101.278107 
L 168.094892 100.282933 
L 167.327505 101.131374 
L 166.943811 99.869532 
L 166.560118 98.112459 
L 166.176424 98.536139 
L 165.792731 96.048375 
L 165.409037 96.391511 
L 165.025344 99.007996 
L 164.64165 98.463911 
L 163.874263 105.321618 
L 163.49057 106.541975 
L 162.339489 99.191355 
L 161.955796 100.092459 
L 161.572102 98.568097 
L 161.188409 98.948275 
L 160.804715 99.701068 
L 160.421022 97.566573 
L 160.037328 93.928142 
L 159.653635 96.26388 
L 159.269941 94.204927 
L 158.502554 98.015475 
L 158.118861 97.878353 
L 157.735167 97.894637 
L 156.96778 99.890622 
L 156.584086 98.549689 
L 155.816699 99.973454 
L 155.049312 95.195001 
L 154.281925 93.359232 
L 153.514538 87.040268 
L 153.130845 88.561359 
L 152.747151 84.404569 
L 152.363458 83.758653 
L 151.979764 83.658418 
L 151.596071 82.311368 
L 151.212377 79.308277 
L 150.828684 80.284041 
L 150.44499 74.434058 
L 150.061297 73.320412 
L 149.677603 75.056302 
L 149.29391 75.886826 
L 148.910216 77.067809 
L 148.526523 75.702798 
L 148.142829 76.835547 
L 146.991749 71.821851 
L 146.608055 69.518315 
L 146.224361 68.024526 
L 145.840668 67.875964 
L 145.456974 66.059472 
L 145.073281 66.614217 
L 144.305894 73.399606 
L 143.9222 74.403706 
L 143.538507 75.921188 
L 143.154813 75.754981 
L 142.77112 74.955616 
L 142.387426 74.847113 
L 141.620039 76.150967 
L 141.236346 74.746884 
L 140.852652 77.342627 
L 140.468959 76.435454 
L 140.085265 78.389009 
L 139.701572 78.600666 
L 139.317878 77.450636 
L 138.934185 76.82269 
L 138.550491 78.664244 
L 138.166798 77.749249 
L 137.783104 75.278231 
L 137.399411 76.051651 
L 137.015717 75.016001 
L 136.632024 76.567478 
L 136.24833 76.493188 
L 135.864637 77.55807 
L 135.480943 75.825706 
L 135.09725 76.55668 
L 134.713556 76.283558 
L 134.329862 72.993081 
L 133.946169 75.952415 
L 133.562475 77.509619 
L 133.178782 76.65292 
L 132.795088 75.124094 
L 132.411395 78.379565 
L 132.027701 78.048587 
L 131.644008 76.122849 
L 131.260314 79.364406 
L 130.876621 78.242713 
L 130.109234 76.737128 
L 129.72554 74.783949 
L 129.341847 77.694031 
L 128.958153 78.761033 
L 128.57446 75.699407 
L 128.190766 78.103456 
L 127.807073 79.367545 
L 127.423379 77.500963 
L 127.039686 78.516081 
L 126.655992 77.877169 
L 126.272299 77.706594 
L 125.888605 78.912218 
L 125.504912 78.910168 
L 125.121218 79.08648 
L 124.737525 78.448397 
L 124.353831 81.877175 
L 123.970138 79.864886 
L 123.586444 82.899367 
L 123.20275 83.593891 
L 122.819057 86.770149 
L 122.435363 82.943366 
L 122.05167 83.320699 
L 121.667976 80.254976 
L 121.284283 81.13651 
L 120.900589 81.639082 
L 120.133202 86.176804 
L 119.749509 85.621039 
L 119.365815 85.970335 
L 118.982122 90.375364 
L 118.598428 90.859102 
L 118.214735 95.350296 
L 117.831041 93.601124 
L 117.447348 97.709894 
L 116.679961 94.69756 
L 116.296267 94.350797 
L 115.912574 93.619996 
L 115.52888 92.467833 
L 115.145187 93.029349 
L 114.761493 91.712732 
L 114.3778 95.312097 
L 113.994106 93.149965 
L 113.610413 93.04304 
L 113.226719 94.310291 
L 112.459332 98.834966 
L 112.075639 99.448495 
L 111.691945 100.923207 
L 111.308251 100.989567 
L 110.924558 102.531007 
L 110.540864 109.73555 
L 110.157171 109.687499 
L 108.622397 119.279448 
L 108.238703 119.892299 
L 107.85501 121.422707 
L 107.471316 123.933953 
L 107.087623 123.930773 
L 106.703929 124.076826 
L 106.320236 125.600984 
L 105.936542 128.326689 
L 105.552849 126.322895 
L 105.169155 128.642443 
L 104.785462 128.71171 
L 104.018075 130.708726 
L 103.634381 130.342482 
L 103.250688 132.327848 
L 102.866994 131.532403 
L 102.483301 131.618412 
L 102.099607 132.399855 
L 101.715914 131.005527 
L 100.181139 134.200991 
L 99.797446 130.09502 
L 99.413752 127.597426 
L 99.030059 128.939713 
L 98.646365 128.749397 
L 98.262672 129.145078 
L 97.495285 127.427618 
L 97.111591 130.0558 
L 96.727898 130.501975 
L 96.344204 127.12722 
L 95.576817 126.365955 
L 95.193124 124.161169 
L 94.80943 120.939434 
L 94.425737 122.502139 
L 93.65835 119.303944 
L 93.274656 121.400412 
L 92.890963 122.797589 
L 92.507269 122.402497 
L 92.123576 122.742816 
L 91.739882 124.244887 
L 91.356189 119.444189 
L 90.972495 120.314234 
L 90.588802 118.044246 
L 90.205108 114.782044 
L 89.821415 96.566197 
L 89.437721 100.017615 
L 89.054028 98.669384 
L 88.28664 103.637911 
L 87.902947 100.575233 
L 86.751866 107.166129 
L 86.368173 103.877452 
L 85.600786 104.462967 
L 85.217092 102.041416 
L 84.449705 101.667731 
L 84.066012 102.341731 
L 83.682318 104.140678 
L 83.298625 108.136201 
L 82.914931 105.399537 
L 82.531238 103.894904 
L 82.147544 109.583246 
L 81.763851 110.699425 
L 80.996464 105.211341 
L 80.61277 108.460138 
L 80.229077 107.181123 
L 79.845383 105.441892 
L 79.46169 105.817656 
L 79.077996 106.842344 
L 78.694303 106.932686 
L 78.310609 105.806591 
L 77.926916 109.261861 
L 77.543222 111.661813 
L 77.159528 109.970975 
L 76.775835 107.699728 
L 76.392141 111.223489 
L 76.008448 111.774763 
L 75.624754 114.93439 
L 75.241061 112.269771 
L 74.857367 113.679706 
L 74.473674 113.742475 
L 74.08998 117.111466 
L 73.706287 115.149623 
L 73.322593 114.121077 
L 72.9389 115.801866 
L 72.555206 116.091997 
L 72.171513 118.6521 
L 71.787819 119.155973 
L 71.404126 122.014658 
L 71.020432 118.96774 
L 70.636739 117.908674 
L 70.253045 120.771604 
L 69.869352 120.836387 
L 69.485658 120.485354 
L 69.101965 119.719516 
L 68.718271 123.189965 
L 68.334578 119.782308 
L 67.950884 124.343966 
L 67.183497 124.139091 
L 66.799804 126.358288 
L 66.41611 130.968995 
L 66.032417 128.236614 
L 65.648723 130.603152 
L 65.265029 131.460698 
L 64.881336 132.011935 
L 64.113949 132.425033 
L 63.730255 131.050549 
L 63.346562 128.823182 
L 62.962868 129.992855 
L 62.579175 129.833613 
L 62.195481 127.943942 
L 61.428094 133.9069 
L 61.044401 134.369847 
L 60.660707 132.260316 
L 60.277014 132.575905 
L 59.89332 128.609916 
L 59.509627 130.698562 
L 59.125933 132.160654 
L 58.74224 132.896124 
L 58.358546 130.602984 
L 57.974853 130.511994 
L 57.591159 127.916715 
L 57.207466 129.928594 
L 56.440079 126.573693 
L 56.056385 125.707365 
L 55.672692 124.557051 
L 55.288998 124.007117 
L 54.905305 125.353726 
L 54.521611 129.524837 
L 54.137917 131.006741 
L 53.754224 129.113332 
L 53.37053 135.40479 
L 52.986837 135.904867 
L 52.603143 138.40261 
L 52.21945 138.433531 
L 51.835756 140.977306 
L 51.452063 140.718313 
L 50.684676 141.181845 
L 50.300982 144.853318 
L 49.917289 142.264383 
L 49.533595 142.08867 
L 49.149902 142.622521 
L 48.766208 139.697466 
L 48.382515 142.982027 
L 47.998821 144.006171 
L 47.231434 142.05104 
L 46.847741 143.593124 
L 46.464047 145.894256 
L 46.080354 147.277595 
L 45.69666 146.25133 
L 45.312967 145.872572 
L 44.929273 146.898071 
L 44.54558 146.74452 
L 44.161886 144.994073 
L 43.778193 148.140156 
L 43.394499 148.069341 
L 43.010806 144.736684 
L 42.627112 149.624086 
L 42.243418 149.728247 
L 41.859725 150.168702 
L 41.476031 149.976264 
L 41.092338 150.131909 
L 40.708644 148.585806 
L 40.324951 149.252739 
L 39.941257 150.672291 
L 39.557564 148.388812 
L 38.790177 149.563686 
L 38.406483 149.822198 
L 38.02279 153.304634 
L 37.639096 152.429831 
L 37.255403 150.411749 
L 36.871709 151.060442 
L 36.488016 150.464303 
L 36.104322 150.25872 
L 35.720629 150.937624 
L 35.336935 153.972205 
L 34.953242 154.376356 
L 34.185855 153.230113 
L 33.802161 157.450239 
L 33.418468 160.19454 
L 33.034774 161.239892 
L 32.651081 166.386129 
L 32.267387 167.774333 
L 31.883694 167.518423 
L 31.5 166.940766 
L 31.5 166.940766 
" style="fill:none;stroke:#000000;stroke-linecap:square;stroke-width:1.5;"/>
   </g>
   <g id="patch_3">
    <path d="M 31.5 183.228387 
L 31.5 60.48 
" style="fill:none;stroke:#000000;stroke-linecap:square;stroke-linejoin:miter;stroke-width:0.8;"/>
   </g>
   <g id="patch_4">
    <path d="M 226.8 183.228387 
L 226.8 60.48 
" style="fill:none;stroke:#000000;stroke-linecap:square;stroke-linejoin:miter;stroke-width:0.8;"/>
   </g>
   <g id="patch_5">
    <path d="M 31.5 183.228387 
L 226.8 183.228387 
" style="fill:none;stroke:#000000;stroke-linecap:square;stroke-linejoin:miter;stroke-width:0.8;"/>
   </g>
   <g id="patch_6">
    <path d="M 31.5 60.48 
L 226.8 60.48 
" style="fill:none;stroke:#000000;stroke-linecap:square;stroke-linejoin:miter;stroke-width:0.8;"/>
   </g>
   <g id="text_7">
    <!-- A -->
    <defs>
     <path d="M 34.1875 63.1875 
L 20.796875 26.90625 
L 47.609375 26.90625 
z
M 28.609375 72.90625 
L 39.796875 72.90625 
L 67.578125 0 
L 57.328125 0 
L 50.6875 18.703125 
L 17.828125 18.703125 
L 11.1875 0 
L 0.78125 0 
z
" id="DejaVuSans-41"/>
    </defs>
    <g transform="translate(33.453 72.754839)scale(0.1 -0.1)">
     <use xlink:href="#DejaVuSans-41"/>
    </g>
   </g>
  </g>
  <g id="axes_2">
   <g id="patch_7">
    <path d="M 31.5 312.114194 
L 226.8 312.114194 
L 226.8 189.365806 
L 31.5 189.365806 
z
" style="fill:#ffffff;"/>
   </g>
   <g id="matplotlib.axis_3">
    <g id="xtick_12"/>
    <g id="xtick_13"/>
    <g id="xtick_14"/>
    <g id="xtick_15"/>
    <g id="xtick_16"/>
    <g id="xtick_17"/>
    <g id="xtick_18"/>
    <g id="xtick_19"/>
    <g id="xtick_20"/>
    <g id="xtick_21"/>
    <g id="xtick_22"/>
   </g>
   <g id="matplotlib.axis_4">
    <g id="ytick_6">
     <g id="line2d_7">
      <g>
       <use style="stroke:#000000;stroke-width:0.8;" x="31.5" xlink:href="#m0b146a41a0" y="243.872278"/>
      </g>
     </g>
     <g id="text_8">
      <!-- 0 -->
      <g transform="translate(18.1375 247.671497)scale(0.1 -0.1)">
       <use xlink:href="#DejaVuSans-30"/>
      </g>
     </g>
    </g>
    <g id="text_9">
     <!-- filter response -->
     <defs>
      <path d="M 37.109375 75.984375 
L 37.109375 68.5 
L 28.515625 68.5 
Q 23.6875 68.5 21.796875 66.546875 
Q 19.921875 64.59375 19.921875 59.515625 
L 19.921875 54.6875 
L 34.71875 54.6875 
L 34.71875 47.703125 
L 19.921875 47.703125 
L 19.921875 0 
L 10.890625 0 
L 10.890625 47.703125 
L 2.296875 47.703125 
L 2.296875 54.6875 
L 10.890625 54.6875 
L 10.890625 58.5 
Q 10.890625 67.625 15.140625 71.796875 
Q 19.390625 75.984375 28.609375 75.984375 
z
" id="DejaVuSans-66"/>
      <path d="M 9.421875 54.6875 
L 18.40625 54.6875 
L 18.40625 0 
L 9.421875 0 
z
M 9.421875 75.984375 
L 18.40625 75.984375 
L 18.40625 64.59375 
L 9.421875 64.59375 
z
" id="DejaVuSans-69"/>
      <path d="M 9.421875 75.984375 
L 18.40625 75.984375 
L 18.40625 0 
L 9.421875 0 
z
" id="DejaVuSans-6c"/>
      <path d="M 56.203125 29.59375 
L 56.203125 25.203125 
L 14.890625 25.203125 
Q 15.484375 15.921875 20.484375 11.0625 
Q 25.484375 6.203125 34.421875 6.203125 
Q 39.59375 6.203125 44.453125 7.46875 
Q 49.3125 8.734375 54.109375 11.28125 
L 54.109375 2.78125 
Q 49.265625 0.734375 44.1875 -0.34375 
Q 39.109375 -1.421875 33.890625 -1.421875 
Q 20.796875 -1.421875 13.15625 6.1875 
Q 5.515625 13.8125 5.515625 26.8125 
Q 5.515625 40.234375 12.765625 48.109375 
Q 20.015625 56 32.328125 56 
Q 43.359375 56 49.78125 48.890625 
Q 56.203125 41.796875 56.203125 29.59375 
z
M 47.21875 32.234375 
Q 47.125 39.59375 43.09375 43.984375 
Q 39.0625 48.390625 32.421875 48.390625 
Q 24.90625 48.390625 20.390625 44.140625 
Q 15.875 39.890625 15.1875 32.171875 
z
" id="DejaVuSans-65"/>
      <path id="DejaVuSans-20"/>
      <path d="M 18.109375 8.203125 
L 18.109375 -20.796875 
L 9.078125 -20.796875 
L 9.078125 54.6875 
L 18.109375 54.6875 
L 18.109375 46.390625 
Q 20.953125 51.265625 25.265625 53.625 
Q 29.59375 56 35.59375 56 
Q 45.5625 56 51.78125 48.09375 
Q 58.015625 40.1875 58.015625 27.296875 
Q 58.015625 14.40625 51.78125 6.484375 
Q 45.5625 -1.421875 35.59375 -1.421875 
Q 29.59375 -1.421875 25.265625 0.953125 
Q 20.953125 3.328125 18.109375 8.203125 
z
M 48.6875 27.296875 
Q 48.6875 37.203125 44.609375 42.84375 
Q 40.53125 48.484375 33.40625 48.484375 
Q 26.265625 48.484375 22.1875 42.84375 
Q 18.109375 37.203125 18.109375 27.296875 
Q 18.109375 17.390625 22.1875 11.75 
Q 26.265625 6.109375 33.40625 6.109375 
Q 40.53125 6.109375 44.609375 11.75 
Q 48.6875 17.390625 48.6875 27.296875 
z
" id="DejaVuSans-70"/>
     </defs>
     <g transform="translate(12.057812 286.778281)rotate(-90)scale(0.1 -0.1)">
      <use xlink:href="#DejaVuSans-66"/>
      <use x="35.205078" xlink:href="#DejaVuSans-69"/>
      <use x="62.988281" xlink:href="#DejaVuSans-6c"/>
      <use x="90.771484" xlink:href="#DejaVuSans-74"/>
      <use x="129.980469" xlink:href="#DejaVuSans-65"/>
      <use x="191.503906" xlink:href="#DejaVuSans-72"/>
      <use x="232.617188" xlink:href="#DejaVuSans-20"/>
      <use x="264.404297" xlink:href="#DejaVuSans-72"/>
      <use x="305.486328" xlink:href="#DejaVuSans-65"/>
      <use x="367.009766" xlink:href="#DejaVuSans-73"/>
      <use x="419.109375" xlink:href="#DejaVuSans-70"/>
      <use x="482.585938" xlink:href="#DejaVuSans-6f"/>
      <use x="543.767578" xlink:href="#DejaVuSans-6e"/>
      <use x="607.146484" xlink:href="#DejaVuSans-73"/>
      <use x="659.246094" xlink:href="#DejaVuSans-65"/>
     </g>
    </g>
   </g>
   <g id="line2d_8">
    <path clip-path="url(#pded8d4366f)" d="M 219.12613 205.504881 
L 218.358743 207.405503 
L 217.975049 207.892435 
L 217.591356 207.983342 
L 217.207662 207.713228 
L 216.440275 206.411015 
L 215.672888 205.08802 
L 215.289194 204.777922 
L 214.905501 204.870362 
L 214.521807 205.422409 
L 214.138114 206.460523 
L 213.370727 209.816077 
L 212.219646 216.849839 
L 210.301179 228.914494 
L 209.150098 234.959308 
L 207.999018 239.890358 
L 207.231631 242.189976 
L 206.847937 242.920263 
L 206.464244 243.302101 
L 206.08055 243.340134 
L 205.696857 243.06158 
L 205.313163 242.470446 
L 204.545776 240.737317 
L 203.394695 238.124792 
L 203.011002 237.631242 
L 202.627308 237.451855 
L 202.243615 237.585723 
L 201.859921 238.036602 
L 201.476228 238.788184 
L 200.708841 240.991671 
L 199.55776 245.519886 
L 196.488212 258.838921 
L 195.720825 260.904365 
L 195.337132 261.398621 
L 194.953438 261.424272 
L 194.569745 260.90799 
L 194.186051 259.831268 
L 193.802358 258.218609 
L 193.034971 253.428603 
L 191.500196 240.599954 
L 190.349116 231.811906 
L 189.581729 227.35618 
L 188.814342 224.136538 
L 188.046955 222.167725 
L 187.663261 221.672052 
L 187.279568 221.507296 
L 186.895874 221.660881 
L 186.512181 222.088704 
L 185.744794 223.503254 
L 184.977407 225.02271 
L 184.21002 226.004301 
L 183.826326 226.189614 
L 183.442633 226.192077 
L 183.058939 226.024797 
L 181.524165 224.876445 
L 180.756778 224.724854 
L 179.989391 224.967628 
L 179.222004 225.579306 
L 178.454617 226.634928 
L 177.68723 228.15882 
L 175.768762 232.475615 
L 175.385069 232.876031 
L 175.001375 232.920024 
L 174.617682 232.547278 
L 174.233988 231.713945 
L 173.850295 230.450637 
L 173.082908 226.76468 
L 171.548134 218.142897 
L 170.780747 215.448016 
L 170.397053 214.882304 
L 170.01336 214.892552 
L 169.629666 215.50722 
L 169.245972 216.708255 
L 168.478585 220.676546 
L 167.327505 229.211986 
L 166.176424 237.858547 
L 165.409037 241.770302 
L 165.025344 242.806485 
L 164.64165 243.162971 
L 164.257957 242.855014 
L 163.874263 241.97242 
L 163.106876 239.131516 
L 162.339489 236.067347 
L 161.955796 234.921442 
L 161.572102 234.204209 
L 161.188409 233.956497 
L 160.804715 234.17886 
L 160.421022 234.750011 
L 159.269941 237.063845 
L 158.886248 237.368342 
L 158.502554 237.141929 
L 158.118861 236.23486 
L 157.735167 234.577465 
L 156.96778 229.12571 
L 155.816699 217.293521 
L 154.665619 205.518432 
L 153.898232 200.100468 
L 153.514538 198.462373 
L 153.130845 197.579621 
L 152.747151 197.438038 
L 152.363458 197.984171 
L 151.979764 199.129732 
L 151.212377 202.800066 
L 148.526523 219.218229 
L 147.375442 227.184954 
L 146.224361 237.594226 
L 144.689587 251.85316 
L 143.9222 256.466304 
L 143.538507 257.799694 
L 143.154813 258.462335 
L 142.77112 258.529595 
L 142.387426 258.054604 
L 142.003733 257.14138 
L 141.236346 254.485657 
L 138.934185 245.308868 
L 138.166798 243.351315 
L 137.783104 242.733249 
L 137.399411 242.350969 
L 137.015717 242.22415 
L 136.632024 242.33762 
L 136.24833 242.635542 
L 135.480943 243.668539 
L 133.946169 246.120333 
L 133.178782 246.914913 
L 132.411395 247.225281 
L 131.644008 247.185872 
L 130.876621 247.072006 
L 130.109234 247.239537 
L 129.341847 247.842786 
L 128.57446 248.966501 
L 127.807073 250.570167 
L 124.737525 257.667285 
L 123.20275 260.265205 
L 122.435363 262.368572 
L 121.667976 265.401314 
L 120.516896 270.457803 
L 120.133202 271.711792 
L 119.749509 272.484734 
L 119.365815 272.656584 
L 118.982122 272.180441 
L 118.598428 271.07248 
L 117.831041 267.479441 
L 116.679961 261.657908 
L 116.296267 260.566591 
L 115.912574 260.209246 
L 115.52888 260.726887 
L 115.145187 262.163365 
L 114.761493 264.499461 
L 113.994106 271.444005 
L 111.308251 301.385939 
L 110.924558 303.937123 
L 110.540864 305.659055 
L 110.157171 306.530543 
L 109.773477 306.534721 
L 109.389784 305.729742 
L 109.00609 304.17828 
L 108.238703 299.30613 
L 107.087623 289.446458 
L 104.785462 269.25223 
L 102.099607 248.49613 
L 100.948527 240.660119 
L 99.797446 234.446041 
L 98.646365 229.868075 
L 97.111591 225.119706 
L 95.960511 222.200178 
L 94.80943 219.234913 
L 94.042043 216.154546 
L 93.274656 211.38296 
L 91.356189 196.636117 
L 90.972495 195.2254 
L 90.588802 194.945279 
L 90.205108 195.930049 
L 89.821415 198.218909 
L 89.054028 206.130491 
L 86.751866 236.580432 
L 85.984479 243.499532 
L 85.217092 248.39233 
L 84.449705 251.626188 
L 84.066012 252.699215 
L 83.682318 253.432103 
L 83.298625 253.833964 
L 82.914931 253.939262 
L 82.531238 253.8033 
L 80.996464 252.571738 
L 80.61277 252.63271 
L 80.229077 252.981903 
L 79.845383 253.628838 
L 79.077996 255.76888 
L 77.159528 262.448641 
L 76.392141 264.197412 
L 75.624754 265.12011 
L 75.241061 265.327379 
L 74.857367 265.371157 
L 74.08998 265.180382 
L 71.787819 264.036279 
L 71.404126 264.083019 
L 71.020432 264.286356 
L 70.636739 264.677525 
L 69.869352 266.003493 
L 68.334578 269.485552 
L 67.950884 269.983027 
L 67.567191 270.112305 
L 67.183497 269.800272 
L 66.799804 269.029343 
L 66.41611 267.799069 
L 65.648723 264.17395 
L 63.346562 251.386851 
L 62.195481 246.886436 
L 59.125933 236.50848 
L 58.74224 236.057999 
L 58.358546 236.176486 
L 57.974853 236.966373 
L 57.591159 238.507989 
L 57.207466 240.835298 
L 56.440079 247.68274 
L 54.137917 273.372958 
L 53.754224 276.016453 
L 53.37053 277.728351 
L 52.986837 278.464329 
L 52.603143 278.262488 
L 52.21945 277.235801 
L 51.452063 273.344006 
L 49.917289 263.724938 
L 49.149902 260.343966 
L 48.382515 258.411283 
L 47.998821 257.891356 
L 47.231434 257.401228 
L 45.312967 256.763996 
L 44.54558 256.225103 
L 43.394499 255.051638 
L 40.708644 251.944764 
L 40.324951 251.845466 
L 39.941257 251.938765 
L 39.557564 252.24568 
L 39.17387 252.797652 
L 39.17387 252.797652 
" style="fill:none;stroke:#000000;stroke-linecap:square;stroke-width:1.5;"/>
   </g>
   <g id="line2d_9">
    <path clip-path="url(#pded8d4366f)" d="M 31.5 243.872278 
L 226.8 243.872278 
" style="fill:none;stroke:#000000;stroke-dasharray:1.5,2.475;stroke-dashoffset:0;stroke-width:1.5;"/>
   </g>
   <g id="patch_8">
    <path d="M 31.5 312.114194 
L 31.5 189.365806 
" style="fill:none;stroke:#000000;stroke-linecap:square;stroke-linejoin:miter;stroke-width:0.8;"/>
   </g>
   <g id="patch_9">
    <path d="M 226.8 312.114194 
L 226.8 189.365806 
" style="fill:none;stroke:#000000;stroke-linecap:square;stroke-linejoin:miter;stroke-width:0.8;"/>
   </g>
   <g id="patch_10">
    <path d="M 31.5 312.114194 
L 226.8 312.114194 
" style="fill:none;stroke:#000000;stroke-linecap:square;stroke-linejoin:miter;stroke-width:0.8;"/>
   </g>
   <g id="patch_11">
    <path d="M 31.5 189.365806 
L 226.8 189.365806 
" style="fill:none;stroke:#000000;stroke-linecap:square;stroke-linejoin:miter;stroke-width:0.8;"/>
   </g>
   <g id="text_10">
    <!-- B -->
    <defs>
     <path d="M 19.671875 34.8125 
L 19.671875 8.109375 
L 35.5 8.109375 
Q 43.453125 8.109375 47.28125 11.40625 
Q 51.125 14.703125 51.125 21.484375 
Q 51.125 28.328125 47.28125 31.5625 
Q 43.453125 34.8125 35.5 34.8125 
z
M 19.671875 64.796875 
L 19.671875 42.828125 
L 34.28125 42.828125 
Q 41.5 42.828125 45.03125 45.53125 
Q 48.578125 48.25 48.578125 53.8125 
Q 48.578125 59.328125 45.03125 62.0625 
Q 41.5 64.796875 34.28125 64.796875 
z
M 9.8125 72.90625 
L 35.015625 72.90625 
Q 46.296875 72.90625 52.390625 68.21875 
Q 58.5 63.53125 58.5 54.890625 
Q 58.5 48.1875 55.375 44.234375 
Q 52.25 40.28125 46.1875 39.3125 
Q 53.46875 37.75 57.5 32.78125 
Q 61.53125 27.828125 61.53125 20.40625 
Q 61.53125 10.640625 54.890625 5.3125 
Q 48.25 0 35.984375 0 
L 9.8125 0 
z
" id="DejaVuSans-42"/>
    </defs>
    <g transform="translate(33.453 201.640645)scale(0.1 -0.1)">
     <use xlink:href="#DejaVuSans-42"/>
    </g>
   </g>
  </g>
  <g id="axes_3">
   <g id="patch_12">
    <path d="M 31.5 441 
L 226.8 441 
L 226.8 318.251613 
L 31.5 318.251613 
z
" style="fill:#ffffff;"/>
   </g>
   <g id="matplotlib.axis_5">
    <g id="xtick_23">
     <g id="line2d_10">
      <defs>
       <path d="M 0 0 
L 0 3.5 
" id="madc94be23e" style="stroke:#000000;stroke-width:0.8;"/>
      </defs>
      <g>
       <use style="stroke:#000000;stroke-width:0.8;" x="31.5" xlink:href="#madc94be23e" y="441"/>
      </g>
     </g>
     <g id="text_11">
      <!-- −5 -->
      <defs>
       <path d="M 10.796875 72.90625 
L 49.515625 72.90625 
L 49.515625 64.59375 
L 19.828125 64.59375 
L 19.828125 46.734375 
Q 21.96875 47.46875 24.109375 47.828125 
Q 26.265625 48.1875 28.421875 48.1875 
Q 40.625 48.1875 47.75 41.5 
Q 54.890625 34.8125 54.890625 23.390625 
Q 54.890625 11.625 47.5625 5.09375 
Q 40.234375 -1.421875 26.90625 -1.421875 
Q 22.3125 -1.421875 17.546875 -0.640625 
Q 12.796875 0.140625 7.71875 1.703125 
L 7.71875 11.625 
Q 12.109375 9.234375 16.796875 8.0625 
Q 21.484375 6.890625 26.703125 6.890625 
Q 35.15625 6.890625 40.078125 11.328125 
Q 45.015625 15.765625 45.015625 23.390625 
Q 45.015625 31 40.078125 35.4375 
Q 35.15625 39.890625 26.703125 39.890625 
Q 22.75 39.890625 18.8125 39.015625 
Q 14.890625 38.140625 10.796875 36.28125 
z
" id="DejaVuSans-35"/>
      </defs>
      <g transform="translate(24.128906 455.598437)scale(0.1 -0.1)">
       <use xlink:href="#DejaVuSans-2212"/>
       <use x="83.789062" xlink:href="#DejaVuSans-35"/>
      </g>
     </g>
    </g>
    <g id="xtick_24">
     <g id="line2d_11">
      <g>
       <use style="stroke:#000000;stroke-width:0.8;" x="51.03" xlink:href="#madc94be23e" y="441"/>
      </g>
     </g>
     <g id="text_12">
      <!-- −4 -->
      <defs>
       <path d="M 37.796875 64.3125 
L 12.890625 25.390625 
L 37.796875 25.390625 
z
M 35.203125 72.90625 
L 47.609375 72.90625 
L 47.609375 25.390625 
L 58.015625 25.390625 
L 58.015625 17.1875 
L 47.609375 17.1875 
L 47.609375 0 
L 37.796875 0 
L 37.796875 17.1875 
L 4.890625 17.1875 
L 4.890625 26.703125 
z
" id="DejaVuSans-34"/>
      </defs>
      <g transform="translate(43.658906 455.598437)scale(0.1 -0.1)">
       <use xlink:href="#DejaVuSans-2212"/>
       <use x="83.789062" xlink:href="#DejaVuSans-34"/>
      </g>
     </g>
    </g>
    <g id="xtick_25">
     <g id="line2d_12">
      <g>
       <use style="stroke:#000000;stroke-width:0.8;" x="70.56" xlink:href="#madc94be23e" y="441"/>
      </g>
     </g>
     <g id="text_13">
      <!-- −3 -->
      <defs>
       <path d="M 40.578125 39.3125 
Q 47.65625 37.796875 51.625 33 
Q 55.609375 28.21875 55.609375 21.1875 
Q 55.609375 10.40625 48.1875 4.484375 
Q 40.765625 -1.421875 27.09375 -1.421875 
Q 22.515625 -1.421875 17.65625 -0.515625 
Q 12.796875 0.390625 7.625 2.203125 
L 7.625 11.71875 
Q 11.71875 9.328125 16.59375 8.109375 
Q 21.484375 6.890625 26.8125 6.890625 
Q 36.078125 6.890625 40.9375 10.546875 
Q 45.796875 14.203125 45.796875 21.1875 
Q 45.796875 27.640625 41.28125 31.265625 
Q 36.765625 34.90625 28.71875 34.90625 
L 20.21875 34.90625 
L 20.21875 43.015625 
L 29.109375 43.015625 
Q 36.375 43.015625 40.234375 45.921875 
Q 44.09375 48.828125 44.09375 54.296875 
Q 44.09375 59.90625 40.109375 62.90625 
Q 36.140625 65.921875 28.71875 65.921875 
Q 24.65625 65.921875 20.015625 65.03125 
Q 15.375 64.15625 9.8125 62.3125 
L 9.8125 71.09375 
Q 15.4375 72.65625 20.34375 73.4375 
Q 25.25 74.21875 29.59375 74.21875 
Q 40.828125 74.21875 47.359375 69.109375 
Q 53.90625 64.015625 53.90625 55.328125 
Q 53.90625 49.265625 50.4375 45.09375 
Q 46.96875 40.921875 40.578125 39.3125 
z
" id="DejaVuSans-33"/>
      </defs>
      <g transform="translate(63.188906 455.598437)scale(0.1 -0.1)">
       <use xlink:href="#DejaVuSans-2212"/>
       <use x="83.789062" xlink:href="#DejaVuSans-33"/>
      </g>
     </g>
    </g>
    <g id="xtick_26">
     <g id="line2d_13">
      <g>
       <use style="stroke:#000000;stroke-width:0.8;" x="90.09" xlink:href="#madc94be23e" y="441"/>
      </g>
     </g>
     <g id="text_14">
      <!-- −2 -->
      <g transform="translate(82.718906 455.598437)scale(0.1 -0.1)">
       <use xlink:href="#DejaVuSans-2212"/>
       <use x="83.789062" xlink:href="#DejaVuSans-32"/>
      </g>
     </g>
    </g>
    <g id="xtick_27">
     <g id="line2d_14">
      <g>
       <use style="stroke:#000000;stroke-width:0.8;" x="109.62" xlink:href="#madc94be23e" y="441"/>
      </g>
     </g>
     <g id="text_15">
      <!-- −1 -->
      <g transform="translate(102.248906 455.598437)scale(0.1 -0.1)">
       <use xlink:href="#DejaVuSans-2212"/>
       <use x="83.789062" xlink:href="#DejaVuSans-31"/>
      </g>
     </g>
    </g>
    <g id="xtick_28">
     <g id="line2d_15">
      <g>
       <use style="stroke:#000000;stroke-width:0.8;" x="129.15" xlink:href="#madc94be23e" y="441"/>
      </g>
     </g>
     <g id="text_16">
      <!-- 0 -->
      <g transform="translate(125.96875 455.598437)scale(0.1 -0.1)">
       <use xlink:href="#DejaVuSans-30"/>
      </g>
     </g>
    </g>
    <g id="xtick_29">
     <g id="line2d_16">
      <g>
       <use style="stroke:#000000;stroke-width:0.8;" x="148.68" xlink:href="#madc94be23e" y="441"/>
      </g>
     </g>
     <g id="text_17">
      <!-- 1 -->
      <g transform="translate(145.49875 455.598437)scale(0.1 -0.1)">
       <use xlink:href="#DejaVuSans-31"/>
      </g>
     </g>
    </g>
    <g id="xtick_30">
     <g id="line2d_17">
      <g>
       <use style="stroke:#000000;stroke-width:0.8;" x="168.21" xlink:href="#madc94be23e" y="441"/>
      </g>
     </g>
     <g id="text_18">
      <!-- 2 -->
      <g transform="translate(165.02875 455.598437)scale(0.1 -0.1)">
       <use xlink:href="#DejaVuSans-32"/>
      </g>
     </g>
    </g>
    <g id="xtick_31">
     <g id="line2d_18">
      <g>
       <use style="stroke:#000000;stroke-width:0.8;" x="187.74" xlink:href="#madc94be23e" y="441"/>
      </g>
     </g>
     <g id="text_19">
      <!-- 3 -->
      <g transform="translate(184.55875 455.598437)scale(0.1 -0.1)">
       <use xlink:href="#DejaVuSans-33"/>
      </g>
     </g>
    </g>
    <g id="xtick_32">
     <g id="line2d_19">
      <g>
       <use style="stroke:#000000;stroke-width:0.8;" x="207.27" xlink:href="#madc94be23e" y="441"/>
      </g>
     </g>
     <g id="text_20">
      <!-- 4 -->
      <g transform="translate(204.08875 455.598437)scale(0.1 -0.1)">
       <use xlink:href="#DejaVuSans-34"/>
      </g>
     </g>
    </g>
    <g id="xtick_33">
     <g id="line2d_20">
      <g>
       <use style="stroke:#000000;stroke-width:0.8;" x="226.8" xlink:href="#madc94be23e" y="441"/>
      </g>
     </g>
     <g id="text_21">
      <!-- 5 -->
      <g transform="translate(223.61875 455.598437)scale(0.1 -0.1)">
       <use xlink:href="#DejaVuSans-35"/>
      </g>
     </g>
    </g>
    <g id="text_22">
     <!-- Position (degrees) -->
     <defs>
      <path d="M 19.671875 64.796875 
L 19.671875 37.40625 
L 32.078125 37.40625 
Q 38.96875 37.40625 42.71875 40.96875 
Q 46.484375 44.53125 46.484375 51.125 
Q 46.484375 57.671875 42.71875 61.234375 
Q 38.96875 64.796875 32.078125 64.796875 
z
M 9.8125 72.90625 
L 32.078125 72.90625 
Q 44.34375 72.90625 50.609375 67.359375 
Q 56.890625 61.8125 56.890625 51.125 
Q 56.890625 40.328125 50.609375 34.8125 
Q 44.34375 29.296875 32.078125 29.296875 
L 19.671875 29.296875 
L 19.671875 0 
L 9.8125 0 
z
" id="DejaVuSans-50"/>
      <path d="M 31 75.875 
Q 24.46875 64.65625 21.28125 53.65625 
Q 18.109375 42.671875 18.109375 31.390625 
Q 18.109375 20.125 21.3125 9.0625 
Q 24.515625 -2 31 -13.1875 
L 23.1875 -13.1875 
Q 15.875 -1.703125 12.234375 9.375 
Q 8.59375 20.453125 8.59375 31.390625 
Q 8.59375 42.28125 12.203125 53.3125 
Q 15.828125 64.359375 23.1875 75.875 
z
" id="DejaVuSans-28"/>
      <path d="M 45.40625 46.390625 
L 45.40625 75.984375 
L 54.390625 75.984375 
L 54.390625 0 
L 45.40625 0 
L 45.40625 8.203125 
Q 42.578125 3.328125 38.25 0.953125 
Q 33.9375 -1.421875 27.875 -1.421875 
Q 17.96875 -1.421875 11.734375 6.484375 
Q 5.515625 14.40625 5.515625 27.296875 
Q 5.515625 40.1875 11.734375 48.09375 
Q 17.96875 56 27.875 56 
Q 33.9375 56 38.25 53.625 
Q 42.578125 51.265625 45.40625 46.390625 
z
M 14.796875 27.296875 
Q 14.796875 17.390625 18.875 11.75 
Q 22.953125 6.109375 30.078125 6.109375 
Q 37.203125 6.109375 41.296875 11.75 
Q 45.40625 17.390625 45.40625 27.296875 
Q 45.40625 37.203125 41.296875 42.84375 
Q 37.203125 48.484375 30.078125 48.484375 
Q 22.953125 48.484375 18.875 42.84375 
Q 14.796875 37.203125 14.796875 27.296875 
z
" id="DejaVuSans-64"/>
      <path d="M 45.40625 27.984375 
Q 45.40625 37.75 41.375 43.109375 
Q 37.359375 48.484375 30.078125 48.484375 
Q 22.859375 48.484375 18.828125 43.109375 
Q 14.796875 37.75 14.796875 27.984375 
Q 14.796875 18.265625 18.828125 12.890625 
Q 22.859375 7.515625 30.078125 7.515625 
Q 37.359375 7.515625 41.375 12.890625 
Q 45.40625 18.265625 45.40625 27.984375 
z
M 54.390625 6.78125 
Q 54.390625 -7.171875 48.1875 -13.984375 
Q 42 -20.796875 29.203125 -20.796875 
Q 24.46875 -20.796875 20.265625 -20.09375 
Q 16.0625 -19.390625 12.109375 -17.921875 
L 12.109375 -9.1875 
Q 16.0625 -11.328125 19.921875 -12.34375 
Q 23.78125 -13.375 27.78125 -13.375 
Q 36.625 -13.375 41.015625 -8.765625 
Q 45.40625 -4.15625 45.40625 5.171875 
L 45.40625 9.625 
Q 42.625 4.78125 38.28125 2.390625 
Q 33.9375 0 27.875 0 
Q 17.828125 0 11.671875 7.65625 
Q 5.515625 15.328125 5.515625 27.984375 
Q 5.515625 40.671875 11.671875 48.328125 
Q 17.828125 56 27.875 56 
Q 33.9375 56 38.28125 53.609375 
Q 42.625 51.21875 45.40625 46.390625 
L 45.40625 54.6875 
L 54.390625 54.6875 
z
" id="DejaVuSans-67"/>
      <path d="M 8.015625 75.875 
L 15.828125 75.875 
Q 23.140625 64.359375 26.78125 53.3125 
Q 30.421875 42.28125 30.421875 31.390625 
Q 30.421875 20.453125 26.78125 9.375 
Q 23.140625 -1.703125 15.828125 -13.1875 
L 8.015625 -13.1875 
Q 14.5 -2 17.703125 9.0625 
Q 20.90625 20.125 20.90625 31.390625 
Q 20.90625 42.671875 17.703125 53.65625 
Q 14.5 64.65625 8.015625 75.875 
z
" id="DejaVuSans-29"/>
     </defs>
     <g transform="translate(83.779687 469.276563)scale(0.1 -0.1)">
      <use xlink:href="#DejaVuSans-50"/>
      <use x="60.255859" xlink:href="#DejaVuSans-6f"/>
      <use x="121.4375" xlink:href="#DejaVuSans-73"/>
      <use x="173.537109" xlink:href="#DejaVuSans-69"/>
      <use x="201.320312" xlink:href="#DejaVuSans-74"/>
      <use x="240.529297" xlink:href="#DejaVuSans-69"/>
      <use x="268.3125" xlink:href="#DejaVuSans-6f"/>
      <use x="329.494141" xlink:href="#DejaVuSans-6e"/>
      <use x="392.873047" xlink:href="#DejaVuSans-20"/>
      <use x="424.660156" xlink:href="#DejaVuSans-28"/>
      <use x="463.673828" xlink:href="#DejaVuSans-64"/>
      <use x="527.150391" xlink:href="#DejaVuSans-65"/>
      <use x="588.673828" xlink:href="#DejaVuSans-67"/>
      <use x="652.150391" xlink:href="#DejaVuSans-72"/>
      <use x="693.232422" xlink:href="#DejaVuSans-65"/>
      <use x="754.755859" xlink:href="#DejaVuSans-65"/>
      <use x="816.279297" xlink:href="#DejaVuSans-73"/>
      <use x="868.378906" xlink:href="#DejaVuSans-29"/>
     </g>
    </g>
   </g>
   <g id="matplotlib.axis_6">
    <g id="ytick_7">
     <g id="line2d_21">
      <g>
       <use style="stroke:#000000;stroke-width:0.8;" x="31.5" xlink:href="#m0b146a41a0" y="435.420528"/>
      </g>
     </g>
     <g id="text_23">
      <!-- 0.00 -->
      <g transform="translate(2.234375 439.219747)scale(0.1 -0.1)">
       <use xlink:href="#DejaVuSans-30"/>
       <use x="63.623047" xlink:href="#DejaVuSans-2e"/>
       <use x="95.410156" xlink:href="#DejaVuSans-30"/>
       <use x="159.033203" xlink:href="#DejaVuSans-30"/>
      </g>
     </g>
    </g>
    <g id="ytick_8">
     <g id="line2d_22">
      <g>
       <use style="stroke:#000000;stroke-width:0.8;" x="31.5" xlink:href="#m0b146a41a0" y="404.551887"/>
      </g>
     </g>
     <g id="text_24">
      <!-- 0.02 -->
      <g transform="translate(2.234375 408.351105)scale(0.1 -0.1)">
       <use xlink:href="#DejaVuSans-30"/>
       <use x="63.623047" xlink:href="#DejaVuSans-2e"/>
       <use x="95.410156" xlink:href="#DejaVuSans-30"/>
       <use x="159.033203" xlink:href="#DejaVuSans-32"/>
      </g>
     </g>
    </g>
    <g id="ytick_9">
     <g id="line2d_23">
      <g>
       <use style="stroke:#000000;stroke-width:0.8;" x="31.5" xlink:href="#m0b146a41a0" y="373.683245"/>
      </g>
     </g>
     <g id="text_25">
      <!-- 0.04 -->
      <g transform="translate(2.234375 377.482464)scale(0.1 -0.1)">
       <use xlink:href="#DejaVuSans-30"/>
       <use x="63.623047" xlink:href="#DejaVuSans-2e"/>
       <use x="95.410156" xlink:href="#DejaVuSans-30"/>
       <use x="159.033203" xlink:href="#DejaVuSans-34"/>
      </g>
     </g>
    </g>
    <g id="ytick_10">
     <g id="line2d_24">
      <g>
       <use style="stroke:#000000;stroke-width:0.8;" x="31.5" xlink:href="#m0b146a41a0" y="342.814604"/>
      </g>
     </g>
     <g id="text_26">
      <!-- 0.06 -->
      <defs>
       <path d="M 33.015625 40.375 
Q 26.375 40.375 22.484375 35.828125 
Q 18.609375 31.296875 18.609375 23.390625 
Q 18.609375 15.53125 22.484375 10.953125 
Q 26.375 6.390625 33.015625 6.390625 
Q 39.65625 6.390625 43.53125 10.953125 
Q 47.40625 15.53125 47.40625 23.390625 
Q 47.40625 31.296875 43.53125 35.828125 
Q 39.65625 40.375 33.015625 40.375 
z
M 52.59375 71.296875 
L 52.59375 62.3125 
Q 48.875 64.0625 45.09375 64.984375 
Q 41.3125 65.921875 37.59375 65.921875 
Q 27.828125 65.921875 22.671875 59.328125 
Q 17.53125 52.734375 16.796875 39.40625 
Q 19.671875 43.65625 24.015625 45.921875 
Q 28.375 48.1875 33.59375 48.1875 
Q 44.578125 48.1875 50.953125 41.515625 
Q 57.328125 34.859375 57.328125 23.390625 
Q 57.328125 12.15625 50.6875 5.359375 
Q 44.046875 -1.421875 33.015625 -1.421875 
Q 20.359375 -1.421875 13.671875 8.265625 
Q 6.984375 17.96875 6.984375 36.375 
Q 6.984375 53.65625 15.1875 63.9375 
Q 23.390625 74.21875 37.203125 74.21875 
Q 40.921875 74.21875 44.703125 73.484375 
Q 48.484375 72.75 52.59375 71.296875 
z
" id="DejaVuSans-36"/>
      </defs>
      <g transform="translate(2.234375 346.613822)scale(0.1 -0.1)">
       <use xlink:href="#DejaVuSans-30"/>
       <use x="63.623047" xlink:href="#DejaVuSans-2e"/>
       <use x="95.410156" xlink:href="#DejaVuSans-30"/>
       <use x="159.033203" xlink:href="#DejaVuSans-36"/>
      </g>
     </g>
    </g>
    <g id="text_27">
     <!-- pr(respond here) -->
     <defs>
      <path d="M 54.890625 33.015625 
L 54.890625 0 
L 45.90625 0 
L 45.90625 32.71875 
Q 45.90625 40.484375 42.875 44.328125 
Q 39.84375 48.1875 33.796875 48.1875 
Q 26.515625 48.1875 22.3125 43.546875 
Q 18.109375 38.921875 18.109375 30.90625 
L 18.109375 0 
L 9.078125 0 
L 9.078125 75.984375 
L 18.109375 75.984375 
L 18.109375 46.1875 
Q 21.34375 51.125 25.703125 53.5625 
Q 30.078125 56 35.796875 56 
Q 45.21875 56 50.046875 50.171875 
Q 54.890625 44.34375 54.890625 33.015625 
z
" id="DejaVuSans-68"/>
     </defs>
     <g transform="translate(-3.845313 422.033619)rotate(-90)scale(0.1 -0.1)">
      <use xlink:href="#DejaVuSans-70"/>
      <use x="63.476562" xlink:href="#DejaVuSans-72"/>
      <use x="104.589844" xlink:href="#DejaVuSans-28"/>
      <use x="143.603516" xlink:href="#DejaVuSans-72"/>
      <use x="184.685547" xlink:href="#DejaVuSans-65"/>
      <use x="246.208984" xlink:href="#DejaVuSans-73"/>
      <use x="298.308594" xlink:href="#DejaVuSans-70"/>
      <use x="361.785156" xlink:href="#DejaVuSans-6f"/>
      <use x="422.966797" xlink:href="#DejaVuSans-6e"/>
      <use x="486.345703" xlink:href="#DejaVuSans-64"/>
      <use x="549.822266" xlink:href="#DejaVuSans-20"/>
      <use x="581.609375" xlink:href="#DejaVuSans-68"/>
      <use x="644.988281" xlink:href="#DejaVuSans-65"/>
      <use x="706.511719" xlink:href="#DejaVuSans-72"/>
      <use x="747.59375" xlink:href="#DejaVuSans-65"/>
      <use x="809.117188" xlink:href="#DejaVuSans-29"/>
     </g>
    </g>
   </g>
   <g id="line2d_25">
    <path clip-path="url(#pc52266a96c)" d="M 219.12613 417.480298 
L 218.742436 420.509195 
L 218.358743 422.509737 
L 217.975049 423.553313 
L 217.591356 423.738585 
L 217.207662 423.179433 
L 216.823969 421.921945 
L 215.289194 415.074693 
L 214.905501 415.397648 
L 214.521807 417.22236 
L 212.60334 431.542608 
L 212.219646 432.902878 
L 211.835953 433.794076 
L 211.452259 434.368551 
L 210.684872 434.961776 
L 209.917485 435.204274 
L 208.382711 435.36013 
L 204.92947 435.386211 
L 199.174067 435.40737 
L 191.500196 435.379259 
L 190.349116 435.231618 
L 189.198035 434.86609 
L 187.663261 434.32784 
L 186.895874 434.325726 
L 183.442633 434.920824 
L 179.222004 434.86491 
L 175.001375 435.264589 
L 173.850295 435.181425 
L 173.082908 434.967976 
L 172.315521 434.437956 
L 171.548134 433.407765 
L 170.780747 432.211493 
L 170.397053 431.881365 
L 170.01336 431.887637 
L 169.629666 432.244211 
L 168.094892 434.594598 
L 167.327505 435.124251 
L 166.560118 435.315292 
L 165.025344 435.39236 
L 161.955796 435.310247 
L 160.037328 435.321512 
L 157.735167 435.303481 
L 156.96778 435.119794 
L 156.584086 434.857548 
L 156.200393 434.293211 
L 155.816699 433.088989 
L 155.433006 430.604809 
L 155.049312 425.81419 
L 154.665619 417.52233 
L 153.898232 389.701927 
L 153.514538 374.71431 
L 153.130845 364.6924 
L 152.747151 362.937666 
L 152.363458 369.475667 
L 150.828684 416.072185 
L 150.44499 422.635084 
L 150.061297 427.006181 
L 149.677603 429.85114 
L 149.29391 431.702317 
L 148.910216 432.921893 
L 148.142829 434.323583 
L 147.375442 434.999728 
L 146.608055 435.288269 
L 145.456974 435.401819 
L 140.085265 435.411883 
L 125.504912 435.417765 
L 100.181139 435.33391 
L 98.262672 435.090839 
L 96.727898 434.699334 
L 95.576817 434.253786 
L 94.80943 433.754422 
L 94.425737 433.314422 
L 94.042043 432.580892 
L 93.65835 431.28976 
L 93.274656 428.934838 
L 92.890963 424.527359 
L 92.507269 416.376943 
L 92.123576 402.117887 
L 90.972495 329.112613 
L 90.588802 323.831085 
L 90.205108 341.319339 
L 89.437721 400.710331 
L 89.054028 419.321519 
L 88.670334 428.759395 
L 88.28664 432.827064 
L 87.902947 434.417823 
L 87.519253 435.017268 
L 87.13556 435.246094 
L 86.368173 435.377257 
L 83.298625 435.416352 
L 39.17387 435.415531 
L 39.17387 435.415531 
" style="fill:none;stroke:#000000;stroke-linecap:square;stroke-width:1.5;"/>
   </g>
   <g id="patch_13">
    <path d="M 31.5 441 
L 31.5 318.251613 
" style="fill:none;stroke:#000000;stroke-linecap:square;stroke-linejoin:miter;stroke-width:0.8;"/>
   </g>
   <g id="patch_14">
    <path d="M 226.8 441 
L 226.8 318.251613 
" style="fill:none;stroke:#000000;stroke-linecap:square;stroke-linejoin:miter;stroke-width:0.8;"/>
   </g>
   <g id="patch_15">
    <path d="M 31.5 441 
L 226.8 441 
" style="fill:none;stroke:#000000;stroke-linecap:square;stroke-linejoin:miter;stroke-width:0.8;"/>
   </g>
   <g id="patch_16">
    <path d="M 31.5 318.251613 
L 226.8 318.251613 
" style="fill:none;stroke:#000000;stroke-linecap:square;stroke-linejoin:miter;stroke-width:0.8;"/>
   </g>
   <g id="text_28">
    <!-- C -->
    <g transform="translate(33.453 330.526452)scale(0.1 -0.1)">
     <use xlink:href="#DejaVuSans-43"/>
    </g>
   </g>
  </g>
 </g>
 <defs>
  <clipPath id="pe96a4e0277">
   <rect height="122.748387" width="195.3" x="31.5" y="60.48"/>
  </clipPath>
  <clipPath id="pded8d4366f">
   <rect height="122.748387" width="195.3" x="31.5" y="189.365806"/>
  </clipPath>
  <clipPath id="pc52266a96c">
   <rect height="122.748387" width="195.3" x="31.5" y="318.251613"/>
  </clipPath>
 </defs>
</svg>
